<svg width="95" height="15" viewBox="0 0 95 15" fill="none" xmlns="http://www.w3.org/2000/svg">
<path d="M75 5.51505L69.5496 5.15672L67.497 0L65.4444 5.15672L60 5.51505L64.1758 9.06073L62.8055 14.4393L67.497 11.4739L72.1885 14.4393L70.8183 9.06073L75 5.51505Z" fill="#C29117"/>
<path d="M55 5.51505L49.5496 5.15672L47.497 0L45.4444 5.15672L40 5.51505L44.1758 9.06073L42.8055 14.4393L47.497 11.4739L52.1885 14.4393L50.8183 9.06073L55 5.51505Z" fill="#C29117"/>
<path d="M35 5.51505L29.5496 5.15672L27.497 0L25.4444 5.15672L20 5.51505L24.1758 9.06073L22.8055 14.4393L27.497 11.4739L32.1885 14.4393L30.8183 9.06073L35 5.51505Z" fill="#C29117"/>
<path d="M15 5.51505L9.54964 5.15672L7.49701 0L5.44438 5.15672L0 5.51505L4.1758 9.06073L2.80553 14.4393L7.49701 11.4739L12.1885 14.4393L10.8183 9.06073L15 5.51505Z" fill="#C29117"/>
<path d="M95 5.51508L89.5527 5.15684L87.5 0L85.4473 5.15686L80 5.51511L84.1794 9.05798L82.8083 14.4392L87.5 11.4739L92.1917 14.4392L90.8206 9.05821L95 5.51508ZM87.5 10.4342L84.2052 12.5166L85.1669 8.74224L82.2216 6.24952L86.0586 5.99748L87.5 2.37645L88.9414 5.99751L92.7829 6.24952L89.8331 8.74201L90.7948 12.5166L87.5 10.4342Z" fill="#C29117"/>
</svg>
