<svg width="17" height="17" viewBox="0 0 17 17" fill="none" xmlns="http://www.w3.org/2000/svg">
<path d="M17 8.5C17 13.1944 13.1944 17 8.5 17C3.80558 17 0 13.1944 0 8.5C0 3.80558 3.80558 0 8.5 0C13.1944 0 17 3.80558 17 8.5ZM1.34666 8.5C1.34666 12.4507 4.54932 15.6533 8.5 15.6533C12.4507 15.6533 15.6533 12.4507 15.6533 8.5C15.6533 4.54932 12.4507 1.34666 8.5 1.34666C4.54932 1.34666 1.34666 4.54932 1.34666 8.5Z" fill="#0D0F15"/>
<path d="M16.9443 9.47111C16.7284 11.3486 15.8929 13.1006 14.5699 14.4502C13.2469 15.7998 11.5119 16.67 9.63907 16.9232C7.76623 17.1765 5.86241 16.7984 4.22849 15.8486C2.59458 14.8989 1.32377 13.4317 0.616918 11.679L1.86584 11.1754C2.4607 12.6504 3.53018 13.8851 4.90523 14.6844C6.28028 15.4836 7.88248 15.8018 9.4586 15.5887C11.0347 15.3756 12.4949 14.6432 13.6082 13.5075C14.7216 12.3717 15.4248 10.8973 15.6065 9.31724L16.9443 9.47111Z" fill="white"/>
</svg>
