<svg width="50" height="30" viewBox="0 0 50 30" fill="none" xmlns="http://www.w3.org/2000/svg">
<rect width="50" height="30" rx="3" fill="#076FCB"/>
<path d="M27.4651 9C27.0051 9 26.6317 9.37335 26.6317 9.83334V19.8331C26.6317 20.2931 27.0051 20.6665 27.4651 20.6665C27.9267 20.6665 28.2984 20.2931 28.2984 19.8331V9.83334C28.2984 9.37335 27.925 9 27.4651 9Z" fill="white"/>
<path d="M33.3333 12.334H30.8333C30.3734 12.334 30 12.7073 30 13.1673C30 13.6273 30.3734 14.0007 30.8333 14.0007H33.3333C33.7933 14.0007 34.1666 13.6273 34.1666 13.1673C34.1666 12.7073 33.7933 12.334 33.3333 12.334Z" fill="white"/>
<path d="M33.3333 15.666H30.8333C30.3734 15.666 30 16.0394 30 16.4994C30 16.9593 30.3734 17.3327 30.8333 17.3327H33.3333C33.7933 17.3327 34.1666 16.9593 34.1666 16.4994C34.1666 16.0394 33.7933 15.666 33.3333 15.666Z" fill="white"/>
<path d="M12.6938 13.1899C12.3088 13.0999 11.9288 13.2815 11.7554 13.6282L10.9221 15.2948C10.7921 15.5515 10.8054 15.8598 10.9571 16.1048C11.1104 16.3498 11.3787 16.4998 11.6671 16.4998H12.5004C12.9604 16.4998 13.3338 16.1264 13.3338 15.6665V13.9998C13.3338 13.6132 13.0688 13.2765 12.6938 13.1899Z" fill="white"/>
<path d="M35.5899 14.2439L33.9233 12.5773C33.6849 12.339 33.3266 12.269 33.0149 12.3973C32.7033 12.5257 32.4999 12.8307 32.4999 13.1673V16.5006C32.4999 16.8372 32.7033 17.1422 33.0149 17.2706C33.1166 17.314 33.2266 17.334 33.3333 17.334C33.5499 17.334 33.7633 17.249 33.9233 17.089L35.5899 15.4223C35.9149 15.0972 35.9149 14.5689 35.5899 14.2439Z" fill="white"/>
<path d="M41.0848 14.8332L44.8063 10.3666C45.0147 10.1183 45.058 9.77162 44.9213 9.47999C44.783 9.18664 44.4897 9 44.1664 9H39.9998C39.7782 9 39.5665 9.08836 39.4098 9.24335L37.4999 11.1533L35.5899 9.24335C35.4333 9.08836 35.2215 9 34.9999 9H24.1319C23.8385 9 23.5669 9.155 23.4169 9.40499L21.6319 12.3816L19.8469 9.40499C19.6953 9.15336 19.4253 9 19.132 9H10.8338C10.5171 9 10.2304 9.17836 10.0888 9.46163L5.08889 19.4614C4.95889 19.7181 4.97225 20.0264 5.12389 20.2714C5.27725 20.5164 5.54552 20.6664 5.83388 20.6664H10.0004C10.3154 20.6664 10.6038 20.488 10.7454 20.2064L11.347 18.9998H11.667V19.8331C11.667 20.2931 12.0404 20.6665 12.5004 20.6665H19.1669C19.5702 20.6665 19.9069 20.3798 19.9835 19.9981L20.0885 20.2065C20.2301 20.4881 20.5185 20.6665 20.8335 20.6665H22.5001C22.8151 20.6665 23.1034 20.4881 23.2451 20.2065L23.3501 19.9981C23.4267 20.3798 23.7634 20.6665 24.1667 20.6665H34.9998C35.2215 20.6665 35.4332 20.5781 35.5898 20.4215L37.4998 18.5115L39.4097 20.4231C39.5664 20.5781 39.7781 20.6665 39.9997 20.6665H44.1663C44.4896 20.6665 44.7829 20.4798 44.9213 20.1865C45.0579 19.8949 45.0146 19.5481 44.8063 19.2999L41.0848 14.8332ZM40.3448 18.9997L38.0898 16.7431C37.7649 16.4181 37.2365 16.4181 36.9115 16.7431L34.6549 18.9997H25.0001V16.4998C25.0001 16.1131 24.7351 15.7764 24.3601 15.6881C23.9768 15.5998 23.5951 15.7798 23.4218 16.1265L21.9868 18.9998H21.3485L19.9135 16.1265C19.7401 15.7815 19.3585 15.5999 18.9752 15.6881C18.5985 15.7765 18.3335 16.1131 18.3335 16.4998V18.9997H13.3336V18.1664C13.3336 17.7064 12.9603 17.333 12.5003 17.333H10.8338C10.5171 17.333 10.2304 17.5114 10.0871 17.793L9.48552 18.9996H7.18049L11.347 10.6665H15.0003V16.4997C15.0003 16.9597 15.3737 17.333 15.8337 17.333C16.2937 17.333 16.667 16.9597 16.667 16.4997V10.6665H18.6603L20.9186 14.4264C21.217 14.928 22.0436 14.928 22.347 14.4264L24.6036 10.6648H34.6534L36.9099 12.9214C37.2349 13.2464 37.7633 13.2464 38.0883 12.9214L40.3449 10.6648H42.3882L39.3616 14.2981C39.1033 14.6081 39.1033 15.0564 39.3616 15.3664L42.3882 18.9997H40.3448Z" fill="white"/>
</svg>
