<svg width="50" height="30" viewBox="0 0 50 30" fill="none" xmlns="http://www.w3.org/2000/svg">
<path d="M14.6149 9.91461C15.027 9.39918 15.3066 8.70718 15.2329 8C14.6297 8.03001 13.8936 8.39799 13.4674 8.91376C13.0847 9.3555 12.7461 10.0765 12.8344 10.754C13.5114 10.8127 14.188 10.4155 14.6149 9.91461" fill="#0D0F15"/>
<rect x="0.5" y="0.5" width="49" height="29" rx="2.5" fill="white" stroke="#EDEDED"/>
<path d="M15.2251 10.8867C14.2418 10.8282 13.4057 11.4448 12.936 11.4448C12.4662 11.4448 11.7471 10.9163 10.9693 10.9305C9.95695 10.9454 9.01762 11.5178 8.5039 12.4281C7.44727 14.2493 8.22507 16.9507 9.25257 18.4339C9.75153 19.1676 10.353 19.9757 11.1453 19.9466C11.894 19.9172 12.1874 19.4618 13.0974 19.4618C14.0068 19.4618 14.2712 19.9466 15.0637 19.9319C15.8855 19.9172 16.3993 19.1977 16.8983 18.4632C17.4707 17.6267 17.7051 16.819 17.7198 16.7747C17.705 16.76 16.135 16.1577 16.1204 14.3517C16.1056 12.8395 17.3531 12.1201 17.4118 12.0756C16.7074 11.0338 15.6067 10.9163 15.2251 10.8867" fill="#0D0F15"/>
<path d="M23.7874 8.83984C25.9248 8.83984 27.413 10.3131 27.413 12.4581C27.413 14.6107 25.8941 16.0917 23.7338 16.0917H21.3675V19.8549H19.6577V8.83984H23.7874ZM21.3674 14.6565H23.3292C24.8178 14.6565 25.6649 13.8551 25.6649 12.4658C25.6649 11.0766 24.8178 10.2826 23.3368 10.2826H21.3674V14.6565Z" fill="#0D0F15"/>
<path d="M27.8598 17.5727C27.8598 16.1681 28.9361 15.3055 30.8446 15.1987L33.0429 15.0689V14.4507C33.0429 13.5576 32.4399 13.0232 31.4325 13.0232C30.478 13.0232 29.8826 13.4812 29.7378 14.1988H28.1805C28.2721 12.7483 29.5086 11.6797 31.4934 11.6797C33.4399 11.6797 34.6841 12.7102 34.6841 14.3208V19.8551H33.1039V18.5345H33.0659C32.6003 19.4277 31.585 19.9925 30.5316 19.9925C28.9591 19.9925 27.8598 19.0153 27.8598 17.5727V17.5727ZM33.0429 16.8476V16.214L31.0658 16.3361C30.0811 16.4049 29.5239 16.84 29.5239 17.527C29.5239 18.2292 30.104 18.6873 30.9895 18.6873C32.1421 18.6871 33.0429 17.8933 33.0429 16.8476Z" fill="#0D0F15"/>
<path d="M36.1758 22.8093V21.4734C36.2978 21.5039 36.5725 21.5039 36.71 21.5039C37.4733 21.5039 37.8856 21.1834 38.1373 20.359C38.1373 20.3436 38.2825 19.8704 38.2825 19.8627L35.3819 11.8247H37.1679L39.1987 18.359H39.229L41.2598 11.8247H43L39.9922 20.2749C39.3054 22.2215 38.5115 22.8474 36.8475 22.8474C36.71 22.8474 36.2977 22.8321 36.1758 22.8093V22.8093Z" fill="#0D0F15"/>
</svg>
