<svg width="35" height="27" viewBox="0 0 35 27" fill="none" xmlns="http://www.w3.org/2000/svg">
<path d="M4.66667 26.8333H30.3333C31.5706 26.8319 32.7568 26.3398 33.6316 25.465C34.5065 24.5901 34.9986 23.4039 35 22.1667V4.66667C34.9986 3.42942 34.5065 2.24324 33.6316 1.36837C32.7568 0.493501 31.5706 0.00138956 30.3333 0H4.66667C3.42942 0.00138956 2.24324 0.493501 1.36837 1.36837C0.493501 2.24324 0.00138956 3.42942 0 4.66667L0 22.1667C0.00138956 23.4039 0.493501 24.5901 1.36837 25.465C2.24324 26.3398 3.42942 26.8319 4.66667 26.8333ZM1.21917 22.75H10.5V25.6667H4.66667C3.84035 25.6651 3.04116 25.3716 2.41032 24.8379C1.77947 24.3042 1.35757 23.5646 1.21917 22.75ZM10.5 5.25V9.91667H1.16667V5.25H10.5ZM24.5 5.25H33.8333V9.91667H24.5C24.1906 9.91667 23.8938 10.0396 23.675 10.2584C23.4562 10.4772 23.3333 10.7739 23.3333 11.0833V25.6667H11.6667V1.16667H23.3333V4.08333C23.3333 4.39275 23.4562 4.6895 23.675 4.90829C23.8938 5.12708 24.1906 5.25 24.5 5.25ZM24.5 21.5833V16.9167H33.8333V21.5833H24.5ZM24.5 15.75V11.0833H33.8333V15.75H24.5ZM10.5 11.0833V15.75H1.16667V11.0833H10.5ZM10.5 16.9167V21.5833H1.16667V16.9167H10.5ZM30.3333 25.6667H24.5V22.75H33.7808C33.6424 23.5646 33.2205 24.3042 32.5897 24.8379C31.9588 25.3716 31.1597 25.6651 30.3333 25.6667ZM33.7808 4.08333H24.5V1.16667H30.3333C31.1597 1.1682 31.9588 1.46176 32.5897 1.99547C33.2205 2.52917 33.6424 3.26868 33.7808 4.08333ZM4.66667 1.16667H10.5V4.08333H1.21917C1.35757 3.26868 1.77947 2.52917 2.41032 1.99547C3.04116 1.46176 3.84035 1.1682 4.66667 1.16667Z" fill="#C29117"/>
</svg>
