<svg width="43" height="20" viewBox="0 0 43 20" fill="none" xmlns="http://www.w3.org/2000/svg">
<path d="M40.7992 0H15.3566C14.2728 0 13.3911 0.881767 13.3911 1.9655V18.0345C13.3911 19.1183 14.2729 20 15.3566 20H40.7992C41.883 20 42.7647 19.1182 42.7647 18.0345V1.96566C42.7647 0.881767 41.883 0 40.7992 0ZM15.3566 1.25287H40.7992C41.0978 1.25287 41.3537 1.43762 41.4596 1.69872L30.4709 10.2061C29.062 11.2969 27.0937 11.2969 25.6847 10.2061L14.6963 1.6988C14.8021 1.43779 15.058 1.25287 15.3566 1.25287ZM41.5119 16.7572L34.4873 11.3189C34.2137 11.1072 33.8203 11.1572 33.6084 11.4307C33.3966 11.7043 33.4467 12.0978 33.7203 12.3096L41.4595 18.3013C41.3537 18.5624 41.0978 18.7472 40.7992 18.7472H15.3566C15.058 18.7472 14.8021 18.5625 14.6963 18.3014L22.4355 12.3097C22.709 12.0978 22.7591 11.7044 22.5473 11.4308C22.3355 11.1573 21.9421 11.1072 21.6685 11.319L14.6439 16.7573V3.24283L24.9177 11.1968C25.848 11.917 26.9629 12.2772 28.0778 12.2772C29.1927 12.2772 30.3076 11.917 31.2379 11.1968L41.5119 3.24283V16.7572Z" fill="#C29117"/>
<path d="M11.3392 11.3818H3.30466C2.9587 11.3818 2.67822 11.6623 2.67822 12.0083C2.67822 12.3542 2.9587 12.6347 3.30466 12.6347H11.3392C11.6852 12.6347 11.9656 12.3542 11.9656 12.0083C11.9656 11.6623 11.6852 11.3818 11.3392 11.3818Z" fill="#C29117"/>
<path d="M11.3391 14.7302H0.626433C0.280475 14.7302 0 15.0107 0 15.3567C0 15.7026 0.280475 15.9831 0.626433 15.9831H11.3391C11.6851 15.9831 11.9655 15.7026 11.9655 15.3567C11.9655 15.0107 11.6851 14.7302 11.3391 14.7302Z" fill="#C29117"/>
<path d="M11.3392 8.03467H5.98288C5.63692 8.03467 5.35645 8.31514 5.35645 8.6611C5.35645 9.00706 5.63692 9.28753 5.98288 9.28753H11.3392C11.6852 9.28753 11.9656 9.00706 11.9656 8.6611C11.9656 8.31506 11.6852 8.03467 11.3392 8.03467Z" fill="#C29117"/>
<path d="M11.3393 4.68665H8.6611C8.31514 4.68665 8.03467 4.96712 8.03467 5.31308C8.03467 5.65904 8.31514 5.93951 8.6611 5.93951H11.3393C11.6853 5.93951 11.9657 5.65904 11.9657 5.31308C11.9657 4.96712 11.6853 4.68665 11.3393 4.68665Z" fill="#C29117"/>
</svg>
