<svg width="35" height="64" viewBox="0 0 35 64" fill="none" xmlns="http://www.w3.org/2000/svg">
<path d="M19.9729 27.9533C19.9729 23.734 16.5367 20.301 12.3131 20.301C8.08948 20.301 4.65338 23.734 4.65338 27.9533C4.65338 32.1765 8.08948 35.6128 12.3131 35.6128C16.5367 35.6128 19.9729 32.1765 19.9729 27.9533ZM12.3131 34.2794C8.82486 34.2794 5.98658 31.4415 5.98658 27.9533C5.98658 24.469 8.82473 21.6343 12.3131 21.6343C15.8014 21.6343 18.6396 24.469 18.6396 27.9533C18.6396 31.4415 15.8014 34.2794 12.3131 34.2794Z" fill="#C29117"/>
<path d="M30.1789 56.0305H29.6492C30.2801 55.3248 30.6644 54.3931 30.6644 53.3736C30.6644 51.2578 29.4004 49.8345 27.197 49.4687C26.2898 49.3164 26.0371 48.8543 25.5531 47.5898C25.3779 47.132 25.0439 46.7871 24.6257 46.5981V16.1006C24.6257 14.7835 23.7711 13.6733 22.5912 13.2647V11.7595C22.5912 10.485 21.6694 9.42619 20.4585 9.20358C20.387 8.39141 19.6174 6.00087 21.9733 4.29535C22.3603 4.0141 22.5915 3.55245 22.5915 3.06037V1.54539C22.5915 0.518245 21.6049 -0.224021 20.6123 0.0617359C18.6462 0.631371 17.1105 1.08187 15.8859 1.44129C12.258 2.50639 11.3957 2.75958 10.1587 2.92569C6.93095 3.36266 4.45034 6.00876 4.16408 9.20395C2.95478 9.42782 2.03475 10.4862 2.03475 11.7596V13.2647C0.85489 13.6732 0 14.7835 0 16.1007V60.987C0 62.6484 1.35149 64 3.01304 64H30.0649C32.0248 64 33.7158 62.6654 34.0863 60.8269C34.5944 58.3053 32.6778 56.0305 30.1789 56.0305ZM10.3372 4.24712C11.6742 4.06672 12.555 3.80827 16.2613 2.72112C17.4847 2.3617 19.0191 1.9112 20.9837 1.34282C21.1192 1.3016 21.2584 1.40508 21.2584 1.54527V3.06024C21.2584 3.12601 21.2323 3.18527 21.191 3.21584C19.4488 4.47687 18.6031 6.60771 19.0355 8.63895C19.0707 8.81083 19.0982 8.98334 19.1185 9.15522H5.50856C5.8096 6.64755 7.78484 4.59225 10.3372 4.24712ZM3.3682 11.7595C3.3682 11.0589 3.93783 10.4893 4.63775 10.4893H19.9882C20.6884 10.4893 21.258 11.0589 21.258 11.7595V13.0875H3.3682V11.7595ZM1.33345 60.9868V16.1006C1.33345 15.1742 2.08699 14.4209 3.01316 14.4209H21.6129C22.539 14.4209 23.2926 15.1742 23.2926 16.1006V46.5376C22.8433 46.6931 22.4719 47.023 22.2611 47.4837C21.6335 48.8555 20.9571 49.6504 20.3565 49.7227C18.3269 49.9668 17.254 51.2291 17.254 53.3736C17.254 54.3931 17.6385 55.3248 18.2697 56.0305H17.74C15.1625 56.0305 13.2519 58.4413 13.8657 60.9647C14.0229 61.6108 14.353 62.1899 14.7987 62.6664H3.01316C2.08699 62.6664 1.33345 61.9133 1.33345 60.9868ZM32.7791 60.5637C32.5337 61.7823 31.3924 62.6665 30.065 62.6665C24.4892 62.6665 20.5254 62.6665 17.8828 62.6665C16.5902 62.6665 15.4457 61.8183 15.1612 60.6496C14.7512 58.9649 16.0271 57.3638 17.7399 57.3638H21.2437C21.6119 57.3638 21.9103 57.0657 21.9103 56.6972C21.9103 56.3288 21.6118 56.0306 21.2437 56.0306C19.7789 56.0306 18.5872 54.8386 18.5872 53.3738C18.5872 51.905 19.1638 51.2091 20.5152 51.047C21.6259 50.9136 22.621 49.9012 23.4732 48.0386C23.639 47.6769 24.1574 47.674 24.3078 48.0665C24.8748 49.5475 25.4087 50.5228 26.9779 50.7839C28.5394 51.0437 29.3311 51.9148 29.3311 53.3738C29.3311 54.8386 28.1394 56.0306 26.6749 56.0306C26.3067 56.0306 26.0081 56.3288 26.0081 56.6972C26.0081 57.0657 26.3067 57.3638 26.6749 57.3638H30.1787C31.8019 57.3638 33.1283 58.8307 32.7791 60.5637Z" fill="#0D0F15"/>
</svg>
