<svg width="30" height="21" viewBox="0 0 30 21" fill="none" xmlns="http://www.w3.org/2000/svg">
<path d="M28.2 0H1.8C0.807598 0 0 0.807598 0 1.8V18.6C0 19.5924 0.807598 20.4 1.8 20.4H28.2C29.1924 20.4 30 19.5924 30 18.6V1.8C30 0.807598 29.1924 0 28.2 0ZM28.8 18.6C28.8 18.93 28.53 19.2 28.2 19.2H1.8C1.46883 19.2 1.2 18.93 1.2 18.6V1.8C1.2 1.46877 1.46883 1.2 1.8 1.2H28.2C28.53 1.2 28.8 1.46877 28.8 1.8V18.6Z" fill="#0D0F15"/>
<path d="M29.3996 5.40002H0.599609V7.80002H29.3996V5.40002Z" fill="#0D0F15"/>
<path d="M29.4 4.79999H0.6C0.268828 4.79999 0 5.06876 0 5.39999V7.79999C0 8.13122 0.268828 8.39999 0.6 8.39999H29.4C29.7312 8.39999 30 8.13122 30 7.79999V5.39999C30 5.06876 29.7312 4.79999 29.4 4.79999ZM28.8 7.19999H1.2V5.99999H28.8V7.19999Z" fill="#0D0F15"/>
<path d="M16.1998 12H5.39981C5.06863 12 4.7998 12.2688 4.7998 12.6C4.7998 12.9312 5.06863 13.2 5.39981 13.2H16.1998C16.531 13.2 16.7998 12.9312 16.7998 12.6C16.7998 12.2688 16.531 12 16.1998 12Z" fill="#0D0F15"/>
<path d="M11.3998 14.4H5.39981C5.06863 14.4 4.7998 14.6689 4.7998 15C4.7998 15.3312 5.06863 15.6 5.39981 15.6H11.3998C11.731 15.6 11.9998 15.3312 11.9998 15C11.9998 14.6689 11.731 14.4 11.3998 14.4Z" fill="#0D0F15"/>
</svg>
