<svg width="27" height="28" viewBox="0 0 27 28" fill="none" xmlns="http://www.w3.org/2000/svg">
<path d="M13.0936 0C9.62248 0.00502147 6.295 1.38613 3.84057 3.84056C1.38614 6.29499 0.00502702 9.62247 5.54616e-06 13.0936V19.7376C-0.00139239 20.5057 0.261516 21.2509 0.744585 21.848C1.22765 22.4451 1.90147 22.8579 2.65289 23.0169C2.81133 24.3895 3.46909 25.6558 4.5009 26.5748C5.5327 27.4937 6.86647 28.001 8.24814 28H14.1424C14.3312 28 14.5122 27.925 14.6457 27.7915C14.7792 27.658 14.8542 27.4769 14.8542 27.2881V25.2522C14.8542 25.0634 14.7792 24.8823 14.6457 24.7488C14.5122 24.6153 14.3312 24.5403 14.1424 24.5403C13.9536 24.5403 13.7725 24.6153 13.639 24.7488C13.5055 24.8823 13.4305 25.0634 13.4305 25.2522V26.5763H8.24814C7.24605 26.5746 6.27752 26.215 5.51704 25.5625C4.75657 24.9099 4.25416 24.0072 4.10034 23.0169C4.83333 22.8471 5.48695 22.4335 5.95423 21.8438C6.42151 21.2541 6.67477 20.5232 6.67255 19.7708V14.6454C6.67693 14.0403 6.51594 13.4455 6.20696 12.9252C5.89798 12.4049 5.45275 11.9788 4.91934 11.6931C4.38592 11.4073 3.78458 11.2727 3.18024 11.3037C2.5759 11.3347 1.99152 11.5303 1.49018 11.8692C1.79703 9.00582 3.15175 6.35705 5.29377 4.43232C7.43579 2.50759 10.2138 1.44282 13.0936 1.44282C15.9733 1.44282 18.7513 2.50759 20.8934 4.43232C23.0354 6.35705 24.3901 9.00582 24.697 11.8692C24.1956 11.5303 23.6112 11.3347 23.0069 11.3037C22.4025 11.2727 21.8012 11.4073 21.2678 11.6931C20.7344 11.9788 20.2891 12.4049 19.9802 12.9252C19.6712 13.4455 19.5102 14.0403 19.5146 14.6454V19.7519C19.5146 20.6367 19.8661 21.4853 20.4918 22.111C21.1174 22.7366 21.966 23.0881 22.8509 23.0881C23.7357 23.0881 24.5843 22.7366 25.21 22.111C25.8356 21.4853 26.1871 20.6367 26.1871 19.7519V13.1078C26.1859 9.63424 24.8064 6.30311 22.3516 3.8456C19.8967 1.38809 16.5671 0.00502844 13.0936 0ZM3.33628 12.7329C3.83974 12.7329 4.32258 12.9329 4.67858 13.2889C5.03458 13.6449 5.23458 14.1277 5.23458 14.6312V19.7519C5.23458 20.2591 5.03308 20.7456 4.67441 21.1042C4.31574 21.4629 3.82928 21.6644 3.32204 21.6644C2.8148 21.6644 2.32834 21.4629 1.96967 21.1042C1.611 20.7456 1.4095 20.2591 1.4095 19.7519V14.6454C1.40757 14.3925 1.4562 14.1418 1.55253 13.9079C1.64885 13.6741 1.79094 13.4619 1.97043 13.2837C2.14992 13.1055 2.36321 12.965 2.59776 12.8704C2.83231 12.7758 3.0834 12.7291 3.33628 12.7329ZM24.7634 19.7519C24.7634 20.2591 24.5619 20.7456 24.2032 21.1042C23.8446 21.4629 23.3581 21.6644 22.8509 21.6644C22.3436 21.6644 21.8572 21.4629 21.4985 21.1042C21.1398 20.7456 20.9383 20.2591 20.9383 19.7519V14.6454C20.9383 14.1382 21.1398 13.6517 21.4985 13.2931C21.8572 12.9344 22.3436 12.7329 22.8509 12.7329C23.3581 12.7329 23.8446 12.9344 24.2032 13.2931C24.5619 13.6517 24.7634 14.1382 24.7634 14.6454V19.7519Z" fill="#C29117"/>
</svg>
