<svg width="50" height="30" viewBox="0 0 50 30" fill="none" xmlns="http://www.w3.org/2000/svg">
<path fill-rule="evenodd" clip-rule="evenodd" d="M43.011 13.032C43.7023 13.9565 44.3826 14.8664 45.0795 15.7984C44.971 15.7984 44.8862 15.7984 44.8014 15.7984C44.4127 15.7984 44.0238 15.7923 43.6353 15.802C43.5176 15.8049 43.4583 15.761 43.3973 15.6696C42.8584 14.8619 42.3149 14.0573 41.7728 13.2517C41.7655 13.2409 41.7566 13.2306 41.7517 13.2186C41.7189 13.1382 41.6485 13.1435 41.5861 13.1563C41.5172 13.1705 41.5502 13.2351 41.55 13.2757C41.5479 14.0663 41.5449 14.8568 41.5519 15.6473C41.553 15.7788 41.5141 15.8043 41.3918 15.8013C41.0514 15.7926 40.7105 15.7957 40.3699 15.8C40.2841 15.8011 40.2492 15.7855 40.2493 15.688C40.2521 13.5609 40.2517 11.4339 40.2503 9.3069C40.2503 9.23477 40.258 9.1958 40.3471 9.19776C41.0804 9.21304 41.8146 9.16851 42.5471 9.22472C43.0557 9.26377 43.5341 9.40134 43.9252 9.74805C44.3942 10.164 44.5263 10.7098 44.4944 11.3109C44.4475 12.1951 43.9657 12.7789 43.1072 12.9965C43.0783 13.0038 43.0508 13.0171 43.011 13.032ZM41.5485 11.2435C41.5485 11.5356 41.5538 11.8278 41.5457 12.1196C41.5428 12.222 41.5753 12.2421 41.6693 12.2382C41.8607 12.2304 42.0521 12.2346 42.2436 12.2144C42.804 12.1552 43.1228 11.8313 43.1643 11.2699C43.1978 10.8179 42.9668 10.476 42.5369 10.335C42.2541 10.2423 41.9624 10.2524 41.671 10.2467C41.5758 10.2448 41.5434 10.2656 41.546 10.3674C41.5534 10.6593 41.5485 10.9514 41.5485 11.2435Z" fill="#0D0F15"/>
<path fill-rule="evenodd" clip-rule="evenodd" d="M45.3666 9.71501C45.429 9.79842 45.4904 9.8806 45.5533 9.96475C45.5435 9.96475 45.5358 9.96475 45.5282 9.96475C45.4931 9.96475 45.4581 9.96417 45.4229 9.96507C45.4124 9.9654 45.407 9.9614 45.4014 9.95314C45.3528 9.88019 45.3037 9.80757 45.2548 9.73486C45.2541 9.73388 45.2533 9.73298 45.2529 9.73192C45.25 9.72457 45.2436 9.72506 45.238 9.7262C45.2318 9.72751 45.2347 9.73331 45.2347 9.73698C45.2345 9.8083 45.2342 9.8797 45.2349 9.9511C45.235 9.96295 45.2314 9.96532 45.2204 9.96499C45.1897 9.96425 45.1589 9.9645 45.1282 9.96491C45.1204 9.96499 45.1173 9.9636 45.1173 9.95478C45.1176 9.7628 45.1176 9.57074 45.1175 9.37876C45.1175 9.37222 45.1181 9.36879 45.1262 9.36887C45.1924 9.37026 45.2586 9.36626 45.3248 9.37124C45.3707 9.37475 45.4139 9.38717 45.4492 9.41854C45.4915 9.45604 45.5035 9.50538 45.5006 9.55963C45.4964 9.63944 45.4529 9.69213 45.3754 9.71182C45.3726 9.71239 45.3701 9.71362 45.3666 9.71501ZM45.2345 9.5535C45.2345 9.57989 45.235 9.60627 45.2342 9.63258C45.234 9.64181 45.2369 9.64369 45.2454 9.64336C45.2627 9.64263 45.28 9.64303 45.2972 9.64116C45.3478 9.63585 45.3765 9.6066 45.3803 9.55595C45.3833 9.51518 45.3625 9.48422 45.3237 9.47156C45.2982 9.46323 45.2718 9.46413 45.2455 9.46355C45.2369 9.46347 45.2339 9.46527 45.2342 9.47442C45.2349 9.50073 45.2345 9.52711 45.2345 9.5535Z" fill="#0D0F15"/>
<path d="M49 29H13C33.4 27 45.5 20.8333 49 18V29Z" fill="#F38232"/>
<rect x="0.5" y="0.5" width="49" height="29" rx="2.5" stroke="#EDEDED"/>
<path fill-rule="evenodd" clip-rule="evenodd" d="M4.00001 9.34144C3.9996 9.23336 4.01561 9.19406 4.13815 9.19586C4.7667 9.20476 5.39591 9.1872 6.02405 9.20672C6.94817 9.23548 7.7879 9.50474 8.47282 10.1575C8.94427 10.6066 9.24057 11.1566 9.35723 11.7946C9.58957 13.0658 9.23118 14.1444 8.26286 15.0067C7.73422 15.4774 7.10077 15.7141 6.40098 15.7706C5.62971 15.8328 4.85624 15.7833 4.08399 15.8001C3.99159 15.8022 4.00189 15.7523 4.00197 15.6943C4.00262 15.0436 4.00401 10.3937 4.00001 9.34144ZM5.28578 14.559C5.28529 14.6483 5.304 14.6769 5.3986 14.6757C5.6561 14.6724 5.91409 14.675 6.17004 14.6463C6.6374 14.5939 7.07577 14.4599 7.41791 14.1175C7.99303 13.5421 8.20437 12.8423 8.04466 12.0506C7.8838 11.2532 7.42485 10.6913 6.62899 10.4447C6.24135 10.3246 5.83828 10.3321 5.43708 10.3271C5.32279 10.3256 5.28317 10.3482 5.28448 10.4737C5.29158 11.1501 5.28962 13.8737 5.28578 14.559Z" fill="#0D0F15"/>
<path fill-rule="evenodd" clip-rule="evenodd" d="M35.7617 9.32725C35.7614 9.22824 35.7815 9.19588 35.8883 9.19629C37.0236 9.20062 38.159 9.19997 39.2944 9.19703C39.3828 9.19678 39.4147 9.2141 39.4127 9.30985C39.4062 9.61538 39.4063 9.92124 39.4127 10.2268C39.4147 10.3189 39.3804 10.3313 39.3009 10.3309C38.5978 10.3282 37.8947 10.3327 37.1917 10.3262C37.0722 10.3251 37.0483 10.3599 37.0504 10.4721C37.0574 10.8694 37.0566 11.2669 37.0506 11.6642C37.0491 11.7634 37.077 11.7875 37.1745 11.7869C37.8513 11.7826 38.5282 11.7874 39.205 11.7817C39.312 11.7808 39.3325 11.8138 39.3303 11.912C39.3241 12.2044 39.3241 12.4971 39.3304 12.7896C39.3324 12.8821 39.306 12.904 39.2152 12.9036C38.5427 12.8995 37.8702 12.905 37.1978 12.8981C37.0724 12.8968 37.0492 12.9364 37.0505 13.0513C37.0566 13.5491 37.0557 14.0469 37.0508 14.5448C37.0499 14.6438 37.0705 14.6764 37.1773 14.6756C37.8803 14.6702 38.5834 14.6753 39.2865 14.6701C39.3915 14.6694 39.415 14.6993 39.4128 14.7992C39.4062 15.1003 39.4083 15.4018 39.4119 15.7031C39.4128 15.7752 39.395 15.7998 39.3185 15.7996C38.1656 15.7972 37.0128 15.7963 35.8599 15.8007C35.7549 15.8011 35.7633 15.7498 35.7634 15.6812C35.7641 14.6155 35.7652 10.3796 35.7617 9.32725Z" fill="#0D0F15"/>
<path fill-rule="evenodd" clip-rule="evenodd" d="M12.6133 13.891C12.787 14.2159 13.0162 14.4805 13.3535 14.6287C13.716 14.788 14.0893 14.8436 14.4656 14.6753C14.8076 14.5225 14.9923 14.2498 15.007 13.8785C15.0216 13.5108 14.8248 13.2644 14.5062 13.1053C14.14 12.9225 13.744 12.8139 13.3697 12.6513C13.004 12.4924 12.6556 12.3086 12.403 11.9833C12.2487 11.7845 12.1631 11.5572 12.1332 11.3139C11.9999 10.2301 12.5934 9.455 13.4937 9.20028C14.4339 8.9342 15.2808 9.16801 16.0393 9.76413C16.0953 9.80816 16.1145 9.8392 16.0609 9.90643C15.8677 10.1483 15.679 10.3938 15.4965 10.6437C15.441 10.7198 15.4168 10.6982 15.3662 10.6443C15.1599 10.424 14.923 10.2457 14.6161 10.2018C14.2287 10.1465 13.8623 10.196 13.5926 10.5172C13.3515 10.8042 13.405 11.1658 13.7096 11.3821C13.9822 11.5758 14.2999 11.6733 14.6073 11.7921C14.8955 11.9035 15.177 12.028 15.4465 12.1808C15.9962 12.4924 16.2983 12.9496 16.3377 13.5902C16.4041 14.6719 15.8354 15.5855 14.7762 15.8576C13.6462 16.1479 12.542 15.8263 11.8171 14.7562C11.7872 14.712 11.7839 14.6862 11.8251 14.6471C12.0875 14.3981 12.3476 14.1465 12.6133 13.891Z" fill="#0D0F15"/>
<path fill-rule="evenodd" clip-rule="evenodd" d="M28.8483 9.19974C29.2963 9.19974 29.7241 9.2026 30.1517 9.19729C30.2374 9.19623 30.2708 9.22695 30.3003 9.30186C30.694 10.2985 31.8285 13.1526 32.0028 13.5931C32.0823 13.5052 33.2158 10.6304 33.7502 9.29737C33.7715 9.24418 33.7868 9.19729 33.8645 9.19795C34.3009 9.20178 34.7373 9.19983 35.1922 9.19983C35.0884 9.44915 33.2192 13.8844 32.3872 15.8649C32.3543 15.9433 32.3178 15.969 32.236 15.9659C32.0703 15.9596 31.9042 15.96 31.7385 15.9658C31.6647 15.9684 31.6314 15.9414 31.604 15.8751C31.0913 14.6315 29.2925 10.2858 28.9081 9.35553C28.8884 9.30799 28.8711 9.25946 28.8483 9.19974Z" fill="#0D0F15"/>
<path fill-rule="evenodd" clip-rule="evenodd" d="M21.8293 10.9833C21.5859 10.7505 21.3526 10.5549 21.074 10.426C19.9775 9.91899 18.6576 10.4636 18.235 11.6264C17.9096 12.5221 18.0179 13.3737 18.6718 14.1011C19.1091 14.5874 19.6869 14.7648 20.3312 14.758C20.8424 14.7527 21.2653 14.5448 21.6391 14.2145C21.6942 14.1659 21.7474 14.1153 21.8009 14.066C21.8473 14.0914 21.8282 14.1308 21.8282 14.1614C21.8297 14.5937 21.8284 15.0262 21.8301 15.4586C21.8304 15.5242 21.8206 15.5642 21.7494 15.5985C20.4254 16.236 18.7505 15.9837 17.7146 14.9233C17.0736 14.2671 16.7579 13.475 16.738 12.5579C16.7042 11.0063 17.7381 9.65324 19.1763 9.21863C20.0587 8.95198 20.9204 9.00304 21.7515 9.42017C21.7962 9.44256 21.831 9.46192 21.8307 9.52376C21.8282 9.99962 21.8293 10.4753 21.8293 10.9833Z" fill="#0D0F15"/>
<path fill-rule="evenodd" clip-rule="evenodd" d="M11.3049 15.6537C11.3053 15.7621 11.2892 15.8048 11.1652 15.8012C10.8161 15.7909 10.4664 15.795 10.1171 15.7995C10.0323 15.8007 10.0063 15.7789 10.0063 15.6913C10.0087 13.5644 10.0089 11.4374 10.0061 9.31051C10.0059 9.21469 10.0376 9.19581 10.1255 9.19696C10.4705 9.20161 10.8156 9.20398 11.1604 9.19598C11.2746 9.19328 11.3062 9.22073 11.3056 9.33845C11.3005 10.3953 11.3011 14.6055 11.3049 15.6537Z" fill="#0D0F15"/>
<path d="M25.7272 16C27.6533 16 29.2148 14.433 29.2148 12.5C29.2148 10.567 27.6533 9 25.7272 9C23.8011 9 22.2396 10.567 22.2396 12.5C22.2396 14.433 23.8011 16 25.7272 16Z" fill="url(#paint0_linear_64_779)"/>
<path d="M25.7272 16C27.6533 16 29.2148 14.433 29.2148 12.5C29.2148 10.567 27.6533 9 25.7272 9C23.8011 9 22.2396 10.567 22.2396 12.5C22.2396 14.433 23.8011 16 25.7272 16Z" fill="url(#paint1_linear_64_779)"/>
<defs>
<linearGradient id="paint0_linear_64_779" x1="24.2486" y1="9.32913" x2="27.2058" y2="15.6708" gradientUnits="userSpaceOnUse">
<stop offset="0.3831" stop-color="#E45E26"/>
<stop offset="1" stop-color="#F8A020"/>
</linearGradient>
<linearGradient id="paint1_linear_64_779" x1="23.9785" y1="9.47104" x2="27.476" y2="15.5289" gradientUnits="userSpaceOnUse">
<stop stop-color="#80391B"/>
<stop offset="0.1105" stop-color="#843B1B" stop-opacity="0.8161"/>
<stop offset="0.2346" stop-color="#92401D" stop-opacity="0.6096"/>
<stop offset="0.3653" stop-color="#A8481F" stop-opacity="0.3922"/>
<stop offset="0.4996" stop-color="#C75323" stop-opacity="0.1687"/>
<stop offset="0.601" stop-color="#E45E26" stop-opacity="0"/>
<stop offset="1" stop-color="#F8A020" stop-opacity="0"/>
</linearGradient>
</defs>
</svg>
