<svg width="40" height="25" viewBox="0 0 40 25" fill="none" xmlns="http://www.w3.org/2000/svg">
<path d="M11.4175 20.7322H7.26158C7.08226 20.7322 6.91028 20.658 6.78348 20.5259C6.65668 20.3938 6.58545 20.2147 6.58545 20.0279C6.58545 19.841 6.65668 19.6619 6.78348 19.5298C6.91028 19.3977 7.08226 19.3235 7.26158 19.3235H11.4175C11.5969 19.3235 11.7688 19.3977 11.8956 19.5298C12.0224 19.6619 12.0937 19.841 12.0937 20.0279C12.0937 20.2147 12.0224 20.3938 11.8956 20.5259C11.7688 20.658 11.5969 20.7322 11.4175 20.7322Z" fill="#C29117"/>
<path d="M28.2802 20.7322H19.202C19.0227 20.7322 18.8507 20.658 18.7239 20.5259C18.5971 20.3938 18.5259 20.2147 18.5259 20.0279C18.5259 19.841 18.5971 19.6619 18.7239 19.5298C18.8507 19.3977 19.0227 19.3235 19.202 19.3235H28.2802C28.4595 19.3235 28.6315 19.3977 28.7583 19.5298C28.8851 19.6619 28.9563 19.841 28.9563 20.0279C28.9563 20.2147 28.8851 20.3938 28.7583 20.5259C28.6315 20.658 28.4595 20.7322 28.2802 20.7322Z" fill="#C29117"/>
<path d="M39.3101 20.732H36.0557C35.8763 20.732 35.7044 20.6578 35.5776 20.5257C35.4508 20.3936 35.3795 20.2144 35.3795 20.0276C35.3795 19.8408 35.4508 19.6616 35.5776 19.5296C35.7044 19.3975 35.8763 19.3232 36.0557 19.3232H38.6475V13.8667C38.6482 13.514 38.5665 13.1663 38.4094 12.8538C38.2524 12.5413 38.0247 12.2733 37.746 12.0729L35.6725 10.6125C35.6 10.5589 35.5374 10.4921 35.4877 10.4153L30.5655 2.49349C30.3607 2.15929 30.0781 1.88454 29.7439 1.69486C29.4097 1.50519 29.0348 1.40676 28.6543 1.40876H9.79918C9.61986 1.40876 9.44788 1.33455 9.32108 1.20246C9.19428 1.07036 9.12305 0.891202 9.12305 0.704391C9.12305 0.517581 9.19428 0.338421 9.32108 0.206326C9.44788 0.0742306 9.61986 2.08513e-05 9.79918 2.08513e-05H28.6543C29.2607 -0.00208374 29.8578 0.155162 30.3904 0.457212C30.923 0.759261 31.3739 1.19636 31.7014 1.72808L36.547 9.5278L38.4852 10.9084C38.9501 11.2354 39.3312 11.676 39.5952 12.1916C39.8591 12.7072 39.9981 13.2823 39.9998 13.8667V20.0276C39.9998 20.1213 39.9819 20.2141 39.947 20.3005C39.9122 20.3869 39.8612 20.4651 39.797 20.5307C39.7327 20.5963 39.6566 20.6479 39.573 20.6825C39.4894 20.717 39.4 20.7339 39.3101 20.732Z" fill="#C29117"/>
<path d="M15.3075 24.944C14.4035 24.944 13.5198 24.6647 12.7682 24.1415C12.0165 23.6183 11.4307 22.8747 11.0847 22.0046C10.7388 21.1345 10.6483 20.1772 10.8246 19.2535C11.001 18.3299 11.4363 17.4814 12.0755 16.8155C12.7147 16.1496 13.5292 15.6961 14.4158 15.5124C15.3024 15.3287 16.2214 15.423 17.0566 15.7834C17.8918 16.1437 18.6056 16.754 19.1078 17.5371C19.6101 18.3201 19.8781 19.2407 19.8781 20.1824C19.8781 21.4453 19.3966 22.6564 18.5394 23.5494C17.6823 24.4423 16.5197 24.944 15.3075 24.944ZM15.3075 16.8296C14.6709 16.8296 14.0487 17.0263 13.5194 17.3947C12.9902 17.7631 12.5777 18.2867 12.3341 18.8994C12.0905 19.512 12.0267 20.1862 12.1509 20.8365C12.2751 21.4869 12.5816 22.0843 13.0317 22.5532C13.4818 23.0221 14.0553 23.3415 14.6796 23.4708C15.3039 23.6002 15.951 23.5338 16.5391 23.28C17.1272 23.0263 17.6298 22.5965 17.9835 22.0452C18.3371 21.4938 18.5259 20.8456 18.5259 20.1824C18.5247 19.2936 18.1852 18.4415 17.5819 17.813C16.9786 17.1845 16.1607 16.8309 15.3075 16.8296Z" fill="#C29117"/>
<path d="M32.1615 24.944C31.2575 24.944 30.3738 24.6647 29.6222 24.1415C28.8705 23.6183 28.2847 22.8747 27.9387 22.0046C27.5928 21.1345 27.5023 20.1772 27.6786 19.2535C27.855 18.3299 28.2903 17.4814 28.9295 16.8155C29.5688 16.1496 30.3832 15.6961 31.2698 15.5124C32.1564 15.3287 33.0754 15.423 33.9106 15.7834C34.7458 16.1437 35.4596 16.754 35.9618 17.5371C36.4641 18.3201 36.7321 19.2407 36.7321 20.1824C36.7309 21.4449 36.249 22.6553 35.3921 23.548C34.5352 24.4407 33.3733 24.9427 32.1615 24.944ZM32.1615 16.8296C31.5249 16.8296 30.9027 17.0263 30.3734 17.3947C29.8442 17.7631 29.4317 18.2867 29.1881 18.8994C28.9445 19.512 28.8807 20.1862 29.0049 20.8365C29.1291 21.4869 29.4356 22.0843 29.8857 22.5532C30.3358 23.0221 30.9093 23.3415 31.5336 23.4708C32.1579 23.6002 32.805 23.5338 33.3931 23.28C33.9812 23.0263 34.4838 22.5965 34.8375 22.0452C35.1911 21.4938 35.3799 20.8456 35.3799 20.1824C35.3775 19.294 35.0376 18.4426 34.4346 17.8144C33.8315 17.1862 33.0143 16.8321 32.1615 16.8296Z" fill="#C29117"/>
<path d="M36.0561 10.7346H25.0892C24.9099 10.7346 24.7379 10.6604 24.6111 10.5283C24.4843 10.3962 24.4131 10.2171 24.4131 10.0302V0.704381C24.4131 0.51757 24.4843 0.338411 24.6111 0.206315C24.7379 0.0742204 24.9099 1.06463e-05 25.0892 1.06463e-05H28.542C29.1832 -0.00153369 29.8144 0.164961 30.3776 0.48417C30.9408 0.80338 31.4179 1.26505 31.7649 1.82668L36.624 9.64989C36.6911 9.7559 36.7292 9.87892 36.7343 10.0058C36.7394 10.1326 36.7113 10.2586 36.6529 10.37C36.5946 10.4815 36.5082 10.5743 36.403 10.6385C36.2979 10.7028 36.178 10.736 36.0561 10.7346ZM25.7654 9.32588H34.812L30.629 2.59209C30.4044 2.22828 30.0955 1.9292 29.7308 1.72241C29.366 1.51561 28.9572 1.40775 28.542 1.40875H25.7654V9.32588Z" fill="#C29117"/>
<path d="M12.2562 6.55046H5.18834C5.00902 6.55046 4.83704 6.47625 4.71024 6.34416C4.58344 6.21206 4.51221 6.0329 4.51221 5.84609C4.51221 5.65928 4.58344 5.48012 4.71024 5.34803C4.83704 5.21593 5.00902 5.14172 5.18834 5.14172H12.2562C12.4355 5.14172 12.6075 5.21593 12.7343 5.34803C12.8611 5.48012 12.9323 5.65928 12.9323 5.84609C12.9323 6.0329 12.8611 6.21206 12.7343 6.34416C12.6075 6.47625 12.4355 6.55046 12.2562 6.55046Z" fill="#C29117"/>
<path d="M9.0737 11.6596H0.676133C0.496811 11.6596 0.324834 11.5854 0.198035 11.4533C0.0712352 11.3212 0 11.142 0 10.9552C0 10.7684 0.0712352 10.5893 0.198035 10.4572C0.324834 10.3251 0.496811 10.2509 0.676133 10.2509H9.0737C9.25302 10.2509 9.425 10.3251 9.5518 10.4572C9.6786 10.5893 9.74983 10.7684 9.74983 10.9552C9.74983 11.142 9.6786 11.3212 9.5518 11.4533C9.425 11.5854 9.25302 11.6596 9.0737 11.6596Z" fill="#C29117"/>
<path d="M8.29821 15.9329H3.25426C3.07494 15.9329 2.90296 15.8587 2.77616 15.7266C2.64936 15.5945 2.57812 15.4154 2.57812 15.2285C2.57812 15.0417 2.64936 14.8626 2.77616 14.7305C2.90296 14.5984 3.07494 14.5242 3.25426 14.5242H8.29821C8.47753 14.5242 8.6495 14.5984 8.7763 14.7305C8.9031 14.8626 8.97434 15.0417 8.97434 15.2285C8.97434 15.4154 8.9031 15.5945 8.7763 15.7266C8.6495 15.8587 8.47753 15.9329 8.29821 15.9329Z" fill="#C29117"/>
</svg>
