<svg width="35" height="60" viewBox="0 0 35 60" fill="none" xmlns="http://www.w3.org/2000/svg">
<path d="M24.4626 16.7789V12.2401C24.4626 11.1082 23.5419 10.187 22.4095 10.187H20.3315V5.92263H22.3044C23.9373 5.92263 25.2657 4.59419 25.2657 2.96131C25.2657 1.32844 23.9373 0 22.3044 0H7.53737C7.12845 0 6.7969 0.331545 6.7969 0.74047V5.18216C6.7969 5.59108 7.12845 5.92263 7.53737 5.92263H14.6681V10.187H12.5902C11.4583 10.187 10.5371 11.1082 10.5371 12.2401V16.7789C7.54528 17.1822 4.7986 18.671 2.83418 21.0218C0.515619 23.795 -0.446822 27.4262 0.19424 30.9839L4.69693 55.9735C5.03638 57.8572 6.67208 59.2252 8.58623 59.2252H26.4134C28.3276 59.2252 29.9633 57.8572 30.3027 55.9735L34.806 30.9839C35.4465 27.4262 34.4846 23.795 32.166 21.0218C30.2011 18.671 27.4544 17.1822 24.4626 16.7789ZM8.27784 1.48037H22.3044C23.1211 1.48037 23.7853 2.14459 23.7853 2.96131C23.7853 3.77803 23.1211 4.44169 22.3044 4.44169H8.27784V1.48037ZM16.0005 5.92263H18.9991V10.187H16.0005V5.92263ZM12.0175 12.2401C12.0175 11.9243 12.2745 11.6679 12.5902 11.6679H22.4095C22.7252 11.6679 22.9822 11.9243 22.9822 12.2401V16.6654C22.9308 16.6648 22.8805 16.6569 22.8291 16.6569H12.1705C12.1191 16.6569 12.0689 16.6648 12.0175 16.6654V12.2401ZM33.3482 30.7213L28.8455 55.7109C28.6331 56.8891 27.6103 57.7442 26.4134 57.7442H8.58623C7.38939 57.7442 6.36652 56.8891 6.15471 55.7109L1.65146 30.7213C1.08834 27.5968 1.9333 24.4073 3.97002 21.9712C6.00617 19.5346 8.99516 18.1378 12.1705 18.1378H22.8291C26.0045 18.1378 28.9935 19.5346 31.0296 21.9712C33.0664 24.4073 33.9113 27.5968 33.3482 30.7213Z" fill="#0D0F15"/>
<path d="M17.5001 23.3013C11.8102 23.3013 7.18152 29.0714 7.18152 36.1638C7.18152 43.2561 11.8102 49.0262 17.5001 49.0262C23.1894 49.0262 27.8181 43.2561 27.8181 36.1638C27.8181 29.0714 23.1894 23.3013 17.5001 23.3013ZM17.5001 47.6938C12.545 47.6938 8.51391 42.5213 8.51391 36.1638C8.51391 29.8062 12.545 24.6337 17.5001 24.6337C22.4546 24.6337 26.4857 29.8062 26.4857 36.1638C26.4857 42.5213 22.4546 47.6938 17.5001 47.6938Z" fill="#C29117"/>
</svg>
