<svg width="50" height="30" viewBox="0 0 50 30" fill="none" xmlns="http://www.w3.org/2000/svg">
<rect x="0.5" y="0.5" width="49" height="29" rx="2.5" fill="white" stroke="#EDEDED"/>
<path d="M23.8433 15.2953V19.7178H22.4398V8.79688H26.1605C27.1035 8.79688 27.9075 9.11123 28.5654 9.73987C29.238 10.3685 29.5742 11.136 29.5742 12.0424C29.5742 12.9708 29.238 13.7383 28.5654 14.3596C27.9148 14.9809 27.1108 15.288 26.1605 15.288H23.8433V15.2953ZM23.8433 10.1419V13.9503H26.1898C26.7453 13.9503 27.2132 13.7603 27.5786 13.3874C27.9514 13.0146 28.1415 12.5615 28.1415 12.0497C28.1415 11.5454 27.9514 11.0994 27.5786 10.7267C27.2131 10.3392 26.7526 10.1492 26.1898 10.1492H23.8433V10.1419Z" fill="#383E41"/>
<path d="M33.2438 11.998C34.2818 11.998 35.1005 12.2758 35.6999 12.8314C36.2994 13.3869 36.599 14.1471 36.599 15.112V19.7172H35.2613V18.6793H35.2028C34.6254 19.5345 33.8505 19.9585 32.8856 19.9585C32.0597 19.9585 31.3725 19.7172 30.8169 19.2275C30.2614 18.7377 29.9836 18.131 29.9836 17.4C29.9836 16.6252 30.276 16.0112 30.8609 15.558C31.4457 15.0975 32.2278 14.8709 33.2 14.8709C34.0333 14.8709 34.7205 15.0244 35.2541 15.3313V15.0097C35.2541 14.52 35.064 14.1107 34.6766 13.7671C34.2891 13.4235 33.836 13.2554 33.3169 13.2554C32.5348 13.2554 31.9135 13.5843 31.4602 14.2495L30.2248 13.4747C30.9047 12.4878 31.9135 11.998 33.2438 11.998ZM31.431 17.4219C31.431 17.7874 31.5845 18.0945 31.8988 18.3356C32.2059 18.5769 32.5714 18.7011 32.988 18.7011C33.5801 18.7011 34.1064 18.4818 34.567 18.0432C35.0275 17.6046 35.2614 17.0929 35.2614 16.5009C34.8228 16.1573 34.2161 15.9819 33.4339 15.9819C32.8638 15.9819 32.3886 16.1207 32.0085 16.3912C31.6211 16.6763 31.431 17.0199 31.431 17.4219Z" fill="#383E41"/>
<path d="M44.2305 12.2397L39.5522 22.9998H38.1048L39.8445 19.2352L36.7598 12.2397H38.2875L40.5097 17.6052H40.539L42.7027 12.2397H44.2305Z" fill="#383E41"/>
<path d="M18.1438 13.0864H12.2609V15.4987L15.649 15.4994C15.5116 16.302 15.0693 16.9862 14.3917 17.4424V17.4428C14.3919 17.4427 14.3922 17.4425 14.3924 17.4424L14.3314 18.8842L16.4092 19.0067C16.4089 19.0069 16.4086 19.0072 16.4084 19.0074H16.4085C17.5861 17.9176 18.2608 16.3064 18.2608 14.403C18.2607 13.9453 18.2198 13.5075 18.1438 13.0864Z" fill="#0085F7"/>
<path d="M14.3924 17.4427C14.3922 17.4428 14.3919 17.443 14.3916 17.4431C13.8304 17.8215 13.1076 18.0428 12.2623 18.0428C10.6286 18.0428 9.24263 16.9419 8.74631 15.458H8.74609C8.74616 15.4583 8.74624 15.4586 8.74631 15.4588L7.01168 15.1841L6.66626 17.0725C7.69706 19.1176 9.81527 20.5208 12.2624 20.5208C13.9534 20.5208 15.3741 19.9648 16.4085 19.0077C16.4088 19.0074 16.4091 19.0072 16.4093 19.0069L14.3924 17.4427Z" fill="#00A94B"/>
<path d="M8.55039 14.2608C8.55039 13.8442 8.61983 13.4414 8.74632 13.0628L8.20467 11.4487H6.6659C6.23976 12.2945 6 13.2491 6 14.2608C6 15.2725 6.24051 16.2272 6.6659 17.0729L6.6662 17.0727L8.74632 15.4589C8.74625 15.4587 8.74617 15.4584 8.7461 15.4581C8.61976 15.0798 8.55039 14.6773 8.55039 14.2608Z" fill="#FFBB00"/>
<path d="M12.2623 8C9.81572 8 7.69662 9.40348 6.66589 11.4488L8.74624 13.0628C9.24257 11.579 10.6285 10.4781 12.2622 10.4781C13.1855 10.4781 14.0123 10.7961 14.665 11.4174L16.4523 9.63166C15.3668 8.62057 13.9516 8 12.2623 8Z" fill="#FF4031"/>
</svg>
