<svg width="50" height="30" viewBox="0 0 50 30" fill="none" xmlns="http://www.w3.org/2000/svg">
<rect x="0.5" y="0.5" width="49" height="29" rx="2.5" fill="white" stroke="#EDEDED"/>
<path d="M20.5 23C24.6421 23 28 19.6421 28 15.5C28 11.3579 24.6421 8 20.5 8C16.3579 8 13 11.3579 13 15.5C13 19.6421 16.3579 23 20.5 23Z" fill="#EA0C24"/>
<path d="M29.8176 23C33.9598 23 37.3176 19.6421 37.3176 15.5C37.3176 11.3579 33.9598 8 29.8176 8C25.6755 8 22.3176 11.3579 22.3176 15.5C22.3176 19.6421 25.6755 23 29.8176 23Z" fill="#F69E34"/>
<path d="M22.318 15.4997C22.318 17.8811 23.4281 20.0031 25.1589 21.3769C26.8895 20.003 27.9997 17.8811 27.9997 15.4997C27.9997 13.1183 26.8895 10.9964 25.1589 9.62256C23.4282 10.9965 22.318 13.1184 22.318 15.4997Z" fill="#FE601F"/>
</svg>
