<svg width="50" height="46" viewBox="0 0 50 46" fill="none" xmlns="http://www.w3.org/2000/svg">
<path d="M49.1593 36.134L30.2927 3.70713C29.1837 1.80107 27.2051 0.663086 25 0.663086C22.7948 0.663086 20.8162 1.80107 19.7072 3.70713L0.840681 36.134C-0.274749 38.0511 -0.280511 40.3436 0.825251 42.2663C1.93101 44.1891 3.91539 45.3368 6.13336 45.3368H43.8665C46.0845 45.3368 48.0689 44.189 49.1747 42.2662C50.2805 40.3436 50.2747 38.0512 49.1593 36.134ZM47.6581 41.394C46.8682 42.7674 45.4508 43.5874 43.8666 43.5874H6.13336C4.54908 43.5874 3.1317 42.7675 2.34185 41.3941C1.55201 40.0208 1.55611 38.3833 2.35279 37.014L21.2194 4.58701C22.0116 3.22549 23.4248 2.4127 25 2.4127C26.5752 2.4127 27.9883 3.22549 28.7805 4.58701L47.6471 37.0139C48.4437 38.3833 48.4479 40.0207 47.6581 41.394Z" fill="#E01111"/>
<path d="M24.9998 32.2153C22.5881 32.2153 20.626 34.1774 20.626 36.5892C20.626 39.001 22.5881 40.963 24.9998 40.963C27.4115 40.963 29.3736 39.0009 29.3736 36.5892C29.3736 34.1774 27.4115 32.2153 24.9998 32.2153ZM24.9998 39.2135C23.5527 39.2135 22.3755 38.0361 22.3755 36.5891C22.3755 35.142 23.5527 33.9647 24.9998 33.9647C26.4469 33.9647 27.6241 35.142 27.6241 36.5891C27.6241 38.0362 26.4469 39.2135 24.9998 39.2135Z" fill="#E01111"/>
<path d="M24.9999 30.0283C27.1705 30.0283 28.9363 28.2625 28.9363 26.0919V15.5946C28.9363 13.424 27.1705 11.6582 24.9999 11.6582C22.8293 11.6582 21.0635 13.424 21.0635 15.5946V26.0919C21.0635 28.2625 22.8293 30.0283 24.9999 30.0283ZM22.813 15.5946C22.813 14.3888 23.794 13.4077 24.9999 13.4077C26.2058 13.4077 27.1868 14.3888 27.1868 15.5946V26.0919C27.1868 27.2978 26.2058 28.2788 24.9999 28.2788C23.794 28.2788 22.813 27.2978 22.813 26.0919V15.5946Z" fill="#E01111"/>
</svg>
