<svg width="44" height="61" viewBox="0 0 44 61" fill="none" xmlns="http://www.w3.org/2000/svg">
<path d="M1 34.1251C1 31.2343 2.57694 28.6589 4.69853 26.3301C5.1582 25.8256 5.0045 25.0284 4.4964 24.5727C2.91605 23.1552 4.48575 21.7734 5.65749 21.1876C10.8325 21.1873 11.35 21.1877 19.1125 21.1876C22.0262 21.916 21.693 23.4135 20.6386 24.4171C20.0715 24.9568 19.8599 26.0071 20.3892 26.5838C23.1383 29.5793 24.1364 32.7653 24.2874 34.1251V58C24.2874 59.1046 23.392 60 22.2874 60H3C1.89543 60 1 59.1085 1 58.004V34.1251Z" stroke="#0D0F15" stroke-width="1.3" stroke-miterlimit="2"/>
<rect x="6.82499" y="32.7049" width="11.12" height="19.4" rx="5.55999" stroke="#C29117" stroke-width="1.3"/>
<path d="M6.82499 15.425C6.82499 14.6795 7.4294 14.075 8.17499 14.075H16.595C17.3405 14.075 17.945 14.6795 17.945 15.425V21.055H6.82499V15.425Z" stroke="#0D0F15" stroke-width="1.3"/>
<line x1="4.75498" y1="16.9149" x2="10.7" y2="16.9149" stroke="black" stroke-width="1.3" stroke-linecap="round"/>
<rect x="26.49" y="12.005" width="16.295" height="9.04998" rx="2.35" stroke="#0D0F15" stroke-width="1.3"/>
<path d="M31.015 21.7051V44.6986C31.015 45.236 31.1016 45.7699 31.2715 46.2798L32.3109 49.3978C32.4808 49.9076 32.5675 50.44 32.5675 50.9775C32.5675 52.0789 32.5675 54.0874 32.5675 55.6193C32.5675 55.7777 32.6043 55.9329 32.683 56.0705C32.9842 56.5971 33.8266 57.93 34.6374 57.93C35.4483 57.93 36.2907 56.5971 36.5919 56.0705C36.6706 55.9329 36.7074 55.7774 36.7074 55.6189V50.9789C36.7074 50.4415 36.7941 49.9076 36.964 49.3978L38.0034 46.2798C38.1733 45.7699 38.2599 45.236 38.2599 44.6986V21.7051" stroke="#0D0F15" stroke-width="1.3" stroke-miterlimit="2"/>
<path d="M29.9799 12.3902L31.2141 9.09917C31.4246 8.53779 31.5324 7.94311 31.5324 7.34355V4.74672C31.5324 3.6619 31.8565 2.56935 32.6839 1.86775C33.2569 1.38187 33.9685 0.947077 34.6374 1.00524C35.2143 1.05541 35.7931 1.4752 36.2564 1.92376C36.9627 2.6074 37.2249 3.59947 37.2249 4.5824V7.06989C37.2249 7.84611 37.4056 8.61168 37.7528 9.30595L39.2949 12.3902" stroke="#0D0F15" stroke-width="1.3" stroke-miterlimit="2"/>
</svg>
