<svg width="50" height="30" viewBox="0 0 50 30" fill="none" xmlns="http://www.w3.org/2000/svg">
<rect width="50" height="30" rx="3" fill="#5A32EF"/>
<path fill-rule="evenodd" clip-rule="evenodd" d="M17.557 10.458C16.8416 9.73437 16.1015 9.32321 15.1394 9.11764C13.9471 8.86272 12.6643 9.02718 11.5213 9.56168C10.7812 9.90705 10 10.4909 10 10.6882C10 10.8856 10.7236 11.8724 10.8716 11.8724C10.9374 11.8724 11.1759 11.7244 11.3979 11.5517C12.911 10.3593 15.0325 10.3264 16.2989 11.4777C17.4995 12.5796 17.7462 14.4626 16.8581 15.803C16.5209 16.3128 16.0769 16.65 15.4355 16.8967C15.0654 17.0365 14.8434 17.0611 14.2678 17.0365C13.6757 17.0118 13.503 16.9625 13.1166 16.7487C12.8534 16.6006 12.5656 16.3457 12.3929 16.1155C12.1627 15.7866 12.1051 15.6385 12.0722 15.1698C12.0229 14.4626 12.1462 14.0844 12.5738 13.6239C12.8781 13.295 12.8945 13.2538 12.7959 13.0647C12.7383 12.9496 12.5163 12.67 12.3025 12.4315L11.916 12.0039L11.4637 12.4315C11.1512 12.7276 10.921 13.04 10.7319 13.4594C10.4687 14.0268 10.4523 14.0926 10.4523 14.9971C10.4523 15.9099 10.4605 15.9675 10.7319 16.5184C12.2202 19.5445 16.965 19.3636 18.5027 16.2306C19.4648 14.2488 19.103 12.0204 17.557 10.458ZM26.586 14.8738C28.1813 13.443 27.803 10.6471 25.8788 9.74259C25.4265 9.53701 25.3772 9.52879 23.4448 9.50412C22.3593 9.48767 21.4465 9.50412 21.4054 9.53701C21.3725 9.5699 21.3479 11.527 21.3479 13.8953C21.3479 14.341 21.3472 14.7419 21.3466 15.1025V15.1025C21.3423 17.5527 21.3413 18.1394 21.5824 18.2664C21.6584 18.3064 21.7583 18.3008 21.8897 18.2934C21.9491 18.2901 22.015 18.2864 22.0879 18.2864C22.1264 18.2864 22.1629 18.2866 22.1975 18.2867H22.1976H22.1976C22.4512 18.288 22.6031 18.2887 22.6939 18.2146C22.8297 18.104 22.8293 17.8262 22.8282 17.1336L22.828 16.9296V15.6797L24.045 15.6385C25.4759 15.5892 25.961 15.4412 26.586 14.8738ZM33.0822 13.4759C32.8931 13.0565 32.5806 12.7276 32.1612 12.5055C31.8981 12.3658 31.6596 12.3246 30.9278 12.3082C29.9163 12.2835 29.4312 12.3822 28.9213 12.7193C28.576 12.9496 28.2059 13.5005 28.1566 13.8459C28.132 14.0512 28.1401 14.0515 28.8115 14.0761L28.8144 14.0762C29.4558 14.1008 29.4969 14.0926 29.5792 13.9035C29.7272 13.5746 30.1219 13.4019 30.7222 13.4019C31.0182 13.4019 31.3389 13.4512 31.4376 13.5005C31.6678 13.6321 31.8734 14.0104 31.8734 14.3229V14.5531L30.7469 14.6518C29.4887 14.7505 29.1434 14.8327 28.7486 15.104C28.2553 15.4412 27.9839 15.8523 27.9428 16.3457C27.8852 17.0365 27.9757 17.3572 28.3457 17.7519C28.7486 18.1877 29.2338 18.3686 29.9739 18.3686C30.6728 18.3686 31.1005 18.2453 31.4869 17.9492C31.7994 17.6943 31.8323 17.7025 31.8899 18.0808C31.9145 18.2206 31.9885 18.2453 32.4079 18.2699C32.6711 18.2864 32.9835 18.2699 33.0904 18.2453L33.2878 18.1959L33.2549 16.0004C33.2302 14.1337 33.2056 13.7555 33.0822 13.4759ZM36.2646 14.5531C35.8616 13.4676 35.4834 12.5384 35.4258 12.4727C35.3024 12.3493 34.365 12.3246 34.1841 12.4398C34.0937 12.4973 34.2992 13.0976 35.2449 15.5234L36.4126 18.5331L36.2234 18.9196C35.9356 19.487 35.6889 19.635 34.9489 19.6679L34.3403 19.7008V20.301C34.3403 20.9918 34.3486 21 35.0722 21C36.0096 21 36.8402 20.556 37.3007 19.8159C37.4569 19.5527 39.9814 12.9167 40.0307 12.6289C40.0554 12.5138 39.9567 12.4809 39.4058 12.448C39.0522 12.4233 38.7315 12.4233 38.6986 12.448C38.6657 12.4727 38.3368 13.4101 37.9667 14.5449C37.5967 15.6714 37.2595 16.6335 37.2267 16.6664C37.1115 16.7816 37.0129 16.5595 36.2646 14.5531ZM22.8445 12.547L22.8691 14.2985H23.8148C24.9413 14.2985 25.114 14.2574 25.5087 13.9038C26.2324 13.2788 26.3228 12.1934 25.7225 11.3875C25.3772 10.927 24.9907 10.8037 23.8312 10.8037H22.828L22.8445 12.547ZM29.3408 16.6827C29.2668 16.1153 29.5299 15.8439 30.2453 15.737C30.4838 15.7041 30.9525 15.6712 31.2814 15.663L31.8735 15.6548V15.9261C31.8735 16.3702 31.5528 16.9047 31.1745 17.0938C30.4344 17.4556 29.4065 17.2336 29.3408 16.6827Z" fill="white"/>
</svg>
