<svg width="52" height="61" viewBox="0 0 52 61" fill="none" xmlns="http://www.w3.org/2000/svg">
<path d="M21.8984 18.6043V14.1018" stroke="#0D0F15" stroke-width="1.3" stroke-miterlimit="10" stroke-linecap="round" stroke-linejoin="round"/>
<path d="M30.1014 18.6043V14.1018" stroke="#0D0F15" stroke-width="1.3" stroke-miterlimit="10" stroke-linecap="round" stroke-linejoin="round"/>
<path d="M46 44.5L39.9649 58.0391C39.5886 58.8916 38.7455 59.4419 37.813 59.4419H14.187C13.2545 59.4419 12.4114 58.8916 12.0351 58.0391L1.20044 33.4818C0.698332 32.3435 1.16986 31.0112 2.27638 30.4421L18.4849 22.0991" stroke="#0D0F15" stroke-width="1.3" stroke-miterlimit="10" stroke-linecap="round" stroke-linejoin="round"/>
<path d="M33.5153 22.0991L49.7238 30.4421C50.8303 31.0112 51.3018 32.3435 50.7997 33.4818L46.0974 44.1397" stroke="#0D0F15" stroke-width="1.3" stroke-miterlimit="10" stroke-linecap="round" stroke-linejoin="round"/>
<path d="M13.4547 32.2197H1.02161" stroke="#0D0F15" stroke-width="1.3" stroke-miterlimit="10" stroke-linecap="round" stroke-linejoin="round"/>
<path d="M50.9784 32.2197H13.5" stroke="#0D0F15" stroke-width="1.3" stroke-miterlimit="10" stroke-linecap="round" stroke-linejoin="round"/>
<path d="M20.5909 1H31.4091C32.3832 1 33.1729 1.78973 33.1729 2.76384V12.3381C33.1729 13.3122 32.3832 14.1019 31.4091 14.1019H20.5909C19.6168 14.1019 18.827 13.3122 18.827 12.3381V2.76384C18.827 1.78973 19.6168 1 20.5909 1Z" stroke="#0D0F15" stroke-width="1.3" stroke-miterlimit="10" stroke-linecap="round" stroke-linejoin="round"/>
<path d="M18.7168 22.1317H33.2833C33.7379 22.1317 34.1064 21.7632 34.1064 21.3086V19.4271C34.1064 18.9725 33.7379 18.604 33.2833 18.604H18.7168C18.2622 18.604 17.8937 18.9725 17.8937 19.4271V21.3086C17.8937 21.7632 18.2622 22.1317 18.7168 22.1317Z" stroke="#0D0F15" stroke-width="1.3" stroke-miterlimit="10" stroke-linecap="round" stroke-linejoin="round"/>
<path d="M26 9.31479C26.9742 9.31479 27.7639 8.52509 27.7639 7.55095C27.7639 6.57681 26.9742 5.78711 26 5.78711C25.0259 5.78711 24.2362 6.57681 24.2362 7.55095C24.2362 8.52509 25.0259 9.31479 26 9.31479Z" stroke="#0D0F15" stroke-width="1.3" stroke-miterlimit="10" stroke-linecap="round" stroke-linejoin="round"/>
<path d="M26.2073 53.0838C32.4552 53.0838 37.5201 49.9549 37.5201 46.0953C37.5201 42.2356 32.4552 39.1067 26.2073 39.1067C19.9594 39.1067 14.8945 42.2356 14.8945 46.0953C14.8945 49.9549 19.9594 53.0838 26.2073 53.0838Z" stroke="#C29117" stroke-width="1.3" stroke-miterlimit="10" stroke-linecap="round" stroke-linejoin="round"/>
</svg>
