<svg width="22" height="25" viewBox="0 0 22 25" fill="none" xmlns="http://www.w3.org/2000/svg">
<path d="M19.2087 7.96626C19.1911 7.95284 19.1702 7.94868 19.1517 7.93803C19.1786 7.68715 19.1934 7.43256 19.1934 7.17473C19.1934 3.21845 15.9745 0 12.0177 0H3.45573C3.22521 0 3.02941 0.169879 2.99747 0.398082L0.00445197 21.6931C-0.0140635 21.826 0.0257447 21.9602 0.11323 22.0616C0.201178 22.163 0.328935 22.2208 0.462709 22.2208H5.24247C5.0462 23.503 4.85549 24.4334 4.85364 24.4441C4.82541 24.5802 4.86059 24.7223 4.94807 24.8297C5.03602 24.9375 5.16794 25 5.30681 25H10.0838C10.3138 25 10.5092 24.831 10.542 24.6033L11.4113 18.5673H15.4236C18.7782 18.5673 21.5078 15.902 21.5078 12.6261C21.5083 10.8001 20.6705 9.10172 19.2087 7.96626ZM3.85798 0.925772H12.0182C15.4644 0.925772 18.2681 3.72901 18.2681 7.17612C18.2681 10.6209 15.4648 13.4237 12.0182 13.4237H6.89219C6.66168 13.4237 6.46587 13.5936 6.43394 13.8222L5.38365 21.2951H0.99549L3.85798 0.925772ZM15.4246 17.641H11.0114C10.7814 17.641 10.586 17.81 10.5532 18.0377L9.68386 24.0738H5.86829C5.9604 23.5799 6.09788 22.7962 6.22888 21.8885C6.2298 21.8829 6.22749 21.8778 6.22795 21.8723C6.23258 21.8552 6.2423 21.8399 6.24462 21.8218L7.29444 14.3495H12.0182C15.3533 14.3495 18.1556 12.06 18.9568 8.97258C19.9919 9.91964 20.5825 11.2268 20.5825 12.6261C20.5825 15.3914 18.2685 17.641 15.4246 17.641Z" fill="#0D0F15"/>
</svg>
