<svg width="25" height="20" viewBox="0 0 25 20" fill="none" xmlns="http://www.w3.org/2000/svg">
<path d="M2.24719 17.5561C0.842697 16.0112 4.17468e-07 14.3258 6.63038e-07 11.5168C1.09278e-06 6.60107 3.51124 2.24714 8.42697 -5.10399e-05L9.69101 1.82579C5.05618 4.35388 4.07303 7.58422 3.79213 9.69096C4.49438 9.26961 5.47753 9.12916 6.46068 9.26961C8.98877 9.55051 10.9551 11.5168 10.9551 14.1853C10.9551 15.4494 10.3933 16.7134 9.55056 17.6966C8.56742 18.6797 7.44382 19.1011 6.03933 19.1011C4.49438 19.1011 3.08989 18.3988 2.24719 17.5561ZM16.2921 17.5561C14.8876 16.0112 14.0449 14.3258 14.0449 11.5168C14.0449 6.60107 17.5562 2.24714 22.4719 -4.98121e-05L23.736 1.82579C19.1011 4.35388 18.118 7.58422 17.8371 9.69096C18.5393 9.26961 19.5225 9.12916 20.5056 9.26961C23.0337 9.55051 25 11.6573 25 14.1853C25 15.4494 24.4382 16.7134 23.5955 17.6966C22.6124 18.6797 21.4888 19.1011 20.0843 19.1011C18.5393 19.1011 17.1348 18.3988 16.2921 17.5561Z" fill="#C29117"/>
</svg>
