<svg width="60" height="60" viewBox="0 0 60 60" fill="none" xmlns="http://www.w3.org/2000/svg">
<path d="M59.4486 1.58996C58.7081 0.891051 57.5145 0.963161 56.8788 1.74792C56.1178 2.68852 55.0828 3.5172 53.8323 4.30008C53.7413 2.83521 52.9874 1.48755 51.7879 0.713477C48.8606 -1.18664 45.3937 0.948011 45.1332 4.29397C45.0242 5.70048 44.8847 7.10087 44.7314 8.49833C29.8572 14.3604 17.6478 19.4887 1.05443 32.3154C-0.036498 33.1619 -0.321181 34.6956 0.390056 35.8797L0.867934 36.6863C2.26762 39.0078 5.32421 39.8206 7.68858 38.4639L31.4415 24.8857C33.4449 23.7474 34.4111 21.3949 33.7839 19.1413C33.5898 18.5368 33.8843 17.9005 34.4693 17.6609C36.3441 16.8938 40.0421 15.3384 44.1053 13.4123C42.1401 26.6866 38.1574 39.5076 32.2197 51.6359C31.4241 53.2612 31.5499 54.9644 32.574 56.4318C33.8601 58.2744 36.3363 59.4104 38.6052 59.1759C40.4063 58.9894 41.7893 57.9702 42.4988 56.3071C49.0621 41.0124 52.822 24.8964 53.6986 8.35141C56.056 6.92729 58.1092 5.48544 59.4764 4.12826C60.2099 3.4 60.147 2.24917 59.4486 1.58996ZM33.9959 16.5043C32.8208 16.9849 32.2049 18.3112 32.5869 19.4998C33.0532 21.1763 32.3282 22.9442 30.8228 23.7996L7.06765 37.3793C5.26689 38.4123 3.01421 37.8249 1.9409 36.0452L1.46361 35.2393C1.07604 34.5941 1.22954 33.7617 1.82005 33.3036C16.8744 21.6666 28.5384 16.204 44.5724 9.90378C44.4905 10.5824 44.3999 11.259 44.3077 11.9353C39.9924 14.0045 35.9712 15.696 33.9959 16.5043ZM41.3496 55.8151C40.6783 57.3891 39.4167 57.8353 38.4768 57.9326C36.6773 58.1197 34.625 57.1869 33.5991 55.7166C33.0668 54.9537 32.5902 53.722 33.3421 52.1855C40.6992 37.1584 45.0854 21.0778 46.3793 4.39063C46.5633 2.02285 48.954 0.364552 51.1074 1.76201C51.108 1.76236 51.1083 1.7626 51.1089 1.76295C52.0616 2.3773 52.6321 3.50111 52.5978 4.69704C52.1131 22.3534 48.3287 39.5518 41.3496 55.8151ZM58.596 3.24109C57.4304 4.39791 55.7307 5.62461 53.7643 6.85095C53.7794 6.49522 53.7937 6.13948 53.8061 5.78339C55.4885 4.81026 56.8527 3.76724 57.8504 2.53408C58.0201 2.32457 58.3376 2.30131 58.5512 2.46538C58.7775 2.63896 58.8345 3.00492 58.596 3.24109Z" fill="#0D0F15"/>
<path d="M38.5425 50.1451C37.2298 49.8204 35.8992 50.6231 35.5766 51.9386C35.2522 53.2518 36.055 54.5816 37.3697 54.9041C38.6714 55.2271 40.0104 54.4348 40.3356 53.1171C40.336 53.1168 40.336 53.1165 40.336 53.1162C40.6569 51.8076 39.8537 50.475 38.5425 50.1451ZM39.1223 52.8174C38.9642 53.4574 38.3124 53.8482 37.6685 53.6905C37.0247 53.5324 36.6314 52.8807 36.7902 52.2374C36.9488 51.5909 37.6029 51.2011 38.2401 51.3578C38.8839 51.5199 39.2794 52.1744 39.1223 52.8174Z" fill="#C29117"/>
<path d="M49.9467 6.23285C48.6454 5.91118 47.306 6.70016 46.9808 8.02633C46.6565 9.3397 47.4587 10.6695 48.7739 10.9922C50.0758 11.3152 51.4146 10.5227 51.7398 9.20488C51.7402 9.20453 51.7402 9.20429 51.7402 9.20394C52.0612 7.89538 51.258 6.56275 49.9467 6.23285ZM50.5265 8.90516C50.3712 9.53407 49.7264 9.93949 49.0727 9.77859C48.4289 9.62051 48.0357 8.96917 48.1945 8.32511C48.353 7.6787 49.0072 7.28891 49.6443 7.44558C50.2881 7.60765 50.6837 8.26216 50.5265 8.90516Z" fill="#C29117"/>
</svg>
