<svg width="20" height="20" viewBox="0 0 20 20" fill="none" xmlns="http://www.w3.org/2000/svg">
<path d="M8.80757 0C3.95121 0 0 3.95121 0 8.80757C0 13.6642 3.95121 17.6151 8.80757 17.6151C13.6642 17.6151 17.6151 13.6642 17.6151 8.80757C17.6151 3.95121 13.6642 0 8.80757 0ZM8.80757 15.9892C4.84769 15.9892 1.62601 12.7675 1.62601 8.80761C1.62601 4.84773 4.84769 1.62601 8.80757 1.62601C12.7675 1.62601 15.9891 4.84769 15.9891 8.80757C15.9891 12.7675 12.7675 15.9892 8.80757 15.9892Z" fill="#2D3037"/>
<path d="M19.7617 18.6122L15.1005 13.9509C14.7829 13.6333 14.2685 13.6333 13.9509 13.9509C13.6332 14.2683 13.6332 14.7832 13.9509 15.1005L18.6121 19.7618C18.7709 19.9206 18.9788 20 19.1869 20C19.3948 20 19.6029 19.9206 19.7617 19.7618C20.0793 19.4444 20.0793 18.9295 19.7617 18.6122Z" fill="#2D3037"/>
</svg>
