<svg width="32" height="26" viewBox="0 0 32 26" fill="none" xmlns="http://www.w3.org/2000/svg">
<path d="M31.5981 3.00632L25.1981 0.446322C25.0453 0.38508 24.8747 0.38508 24.7219 0.446322L18.3219 3.00632C18.2033 3.05387 18.1016 3.13585 18.03 3.2417C17.9583 3.34755 17.92 3.47243 17.92 3.60024V10.2153C17.9233 11.4308 18.2396 12.6249 18.8384 13.6826C19.4372 14.7404 20.2984 15.626 21.3389 16.2543L24.631 18.2294C24.7304 18.2889 24.8441 18.3204 24.96 18.3204C25.0759 18.3204 25.1896 18.2889 25.289 18.2294L28.16 16.5065V23.6745C28.1597 23.9527 28.049 24.2195 27.8522 24.4163C27.6554 24.6131 27.3887 24.7237 27.1104 24.7241H2.3296C2.05133 24.7237 1.78456 24.6131 1.58779 24.4163C1.39103 24.2195 1.28034 23.9527 1.28 23.6745V9.36024H16C16.1697 9.36024 16.3325 9.29281 16.4525 9.17279C16.5726 9.05277 16.64 8.88998 16.64 8.72024C16.64 8.5505 16.5726 8.38772 16.4525 8.26769C16.3325 8.14767 16.1697 8.08024 16 8.08024H1.28V6.56984C1.28034 6.29157 1.39103 6.0248 1.58779 5.82804C1.78456 5.63127 2.05133 5.52058 2.3296 5.52024H16C16.1697 5.52024 16.3325 5.45281 16.4525 5.33279C16.5726 5.21277 16.64 5.04998 16.64 4.88024C16.64 4.7105 16.5726 4.54772 16.4525 4.42769C16.3325 4.30767 16.1697 4.24024 16 4.24024H2.3296C1.71186 4.24058 1.11951 4.48613 0.682699 4.92294C0.245887 5.35975 0.000339141 5.9521 0 6.56984V23.6706C0.000339141 24.2884 0.245887 24.8807 0.682699 25.3175C1.11951 25.7544 1.71186 25.9999 2.3296 26.0002H27.1104C27.7281 25.9999 28.3205 25.7544 28.7573 25.3175C29.1941 24.8807 29.4397 24.2884 29.44 23.6706V15.6322C30.2373 14.9712 30.8797 14.1433 31.3221 13.2069C31.7644 12.2704 31.9958 11.2484 32 10.2127V3.60024C32 3.47243 31.9617 3.34755 31.89 3.2417C31.8184 3.13585 31.7167 3.05387 31.5981 3.00632ZM30.72 10.2153C30.7174 11.2098 30.4585 12.1869 29.9684 13.0524C29.4783 13.9178 28.7735 14.6423 27.9219 15.1561L24.96 16.934L21.9981 15.1561C21.1465 14.6423 20.4417 13.9178 19.9516 13.0524C19.4615 12.1869 19.2026 11.2098 19.2 10.2153V4.03288L24.96 1.72888L30.72 4.03288V10.2153Z" fill="#C29117"/>
<path d="M22.8532 8.37733C22.7938 8.31783 22.7233 8.27061 22.6456 8.23837C22.5679 8.20614 22.4847 8.18951 22.4006 8.18945C22.3165 8.1894 22.2332 8.2059 22.1555 8.23803C22.0778 8.27015 22.0071 8.31727 21.9476 8.37669C21.8881 8.43611 21.8409 8.50667 21.8087 8.58434C21.7764 8.66201 21.7598 8.74527 21.7598 8.82936C21.7597 8.91345 21.7762 8.99673 21.8083 9.07445C21.8405 9.15216 21.8876 9.22279 21.947 9.28229L23.6545 10.9885C23.7745 11.1085 23.9373 11.1759 24.107 11.1759C24.2767 11.1759 24.4395 11.1085 24.5595 10.9885L27.9732 7.57477C28.0932 7.45459 28.1606 7.29167 28.1605 7.12184C28.1604 6.952 28.0928 6.78918 27.9726 6.66917C27.8524 6.54916 27.6895 6.48181 27.5197 6.48193C27.3498 6.48205 27.187 6.54963 27.067 6.66981L24.1064 9.63173L22.8532 8.37733Z" fill="#C29117"/>
<path d="M4.47984 20.8804C4.31011 20.8804 4.14732 20.9478 4.0273 21.0678C3.90727 21.1878 3.83984 21.3506 3.83984 21.5204C3.83984 21.6901 3.90727 21.8529 4.0273 21.9729C4.14732 22.0929 4.31011 22.1604 4.47984 22.1604H9.59984C9.76958 22.1604 9.93237 22.0929 10.0524 21.9729C10.1724 21.8529 10.2398 21.6901 10.2398 21.5204C10.2398 21.3506 10.1724 21.1878 10.0524 21.0678C9.93237 20.9478 9.76958 20.8804 9.59984 20.8804H4.47984Z" fill="#C29117"/>
</svg>
