<svg width="29" height="60" viewBox="0 0 29 60" fill="none" xmlns="http://www.w3.org/2000/svg">
<path d="M25.5 47.5L26.0814 47.7907C26.1212 47.711 26.1443 47.6239 26.1491 47.5349L25.5 47.5ZM3.5 47.5L2.85094 47.5349L2.85819 47.6698L2.91862 47.7907L3.5 47.5ZM8.5 52.5L8.20931 53.0814C8.29957 53.1265 8.39909 53.15 8.5 53.15V52.5ZM27.8867 3.10737L28.5358 3.14227L27.8867 3.10737ZM3.11042 1.65H25.8896V0.35H3.11042V1.65ZM27.2376 3.07248L24.8509 47.4651L26.1491 47.5349L28.5358 3.14227L27.2376 3.07248ZM24.9186 47.2093C24.1769 48.6928 23.4923 49.8026 22.276 50.5766C21.0518 51.3557 19.1963 51.85 16 51.85V53.15C19.3037 53.15 21.4482 52.6443 22.974 51.6734C24.5077 50.6974 25.3231 49.3072 26.0814 47.7907L24.9186 47.2093ZM4.14906 47.4651L1.76236 3.07248L0.464237 3.14227L2.85094 47.5349L4.14906 47.4651ZM16 51.85H8.5V53.15H16V51.85ZM8.5 52.5C8.79069 51.9186 8.79074 51.9186 8.79078 51.9187C8.79078 51.9187 8.79082 51.9187 8.79083 51.9187C8.79084 51.9187 8.79083 51.9187 8.79078 51.9187C8.79069 51.9186 8.79048 51.9185 8.79015 51.9184C8.7895 51.918 8.78837 51.9175 8.78678 51.9167C8.78359 51.9151 8.77856 51.9125 8.77178 51.9091C8.7582 51.9022 8.73761 51.8916 8.71073 51.8777C8.65696 51.8499 8.57813 51.8086 8.48004 51.7558C8.28358 51.65 8.01138 51.4988 7.70942 51.3176C7.09253 50.9475 6.40027 50.481 5.95962 50.0404L5.04038 50.9596C5.59973 51.519 6.40747 52.0525 7.04058 52.4324C7.36362 52.6262 7.65392 52.7875 7.86371 52.9004C7.96875 52.957 8.05398 53.0016 8.11348 53.0324C8.14325 53.0478 8.1666 53.0598 8.18281 53.068C8.19092 53.0721 8.19724 53.0753 8.20169 53.0775C8.20391 53.0787 8.20567 53.0795 8.20694 53.0802C8.20758 53.0805 8.20809 53.0808 8.20849 53.081C8.20869 53.0811 8.20886 53.0812 8.20899 53.0812C8.20906 53.0813 8.20914 53.0813 8.20917 53.0813C8.20925 53.0813 8.20931 53.0814 8.5 52.5ZM5.95962 50.0404C5.51897 49.5997 5.05251 48.9075 4.68237 48.2906C4.5012 47.9886 4.34997 47.7164 4.24418 47.52C4.19137 47.4219 4.15008 47.343 4.12226 47.2893C4.10836 47.2624 4.09784 47.2418 4.09094 47.2282C4.08749 47.2214 4.08495 47.2164 4.08335 47.2132C4.08254 47.2116 4.08198 47.2105 4.08165 47.2098C4.08148 47.2095 4.08138 47.2093 4.08133 47.2092C4.08131 47.2092 4.0813 47.2092 4.08131 47.2092C4.08131 47.2092 4.08133 47.2092 4.08133 47.2092C4.08135 47.2093 4.08138 47.2093 3.5 47.5C2.91862 47.7907 2.91865 47.7908 2.91869 47.7908C2.91871 47.7909 2.91875 47.7909 2.91878 47.791C2.91885 47.7911 2.91893 47.7913 2.91903 47.7915C2.91923 47.7919 2.91949 47.7924 2.91981 47.7931C2.92045 47.7943 2.92133 47.7961 2.92245 47.7983C2.92469 47.8028 2.92789 47.8091 2.93201 47.8172C2.94025 47.8334 2.95219 47.8568 2.96758 47.8865C2.99836 47.946 3.04301 48.0312 3.09957 48.1363C3.21253 48.3461 3.3738 48.6364 3.56763 48.9594C3.94749 49.5925 4.48103 50.4003 5.04038 50.9596L5.95962 50.0404ZM25.8896 1.65C26.6636 1.65 27.2792 2.29953 27.2376 3.07248L28.5358 3.14227C28.6173 1.625 27.409 0.35 25.8896 0.35V1.65ZM3.11042 0.35C1.59096 0.35 0.382664 1.62501 0.464237 3.14227L1.76236 3.07248C1.72081 2.29953 2.33635 1.65 3.11042 1.65V0.35Z" fill="#0D0F15"/>
<path d="M6.5 51V57C6.5 58.1046 7.39543 59 8.5 59H20.5C21.6046 59 22.5 58.1046 22.5 57V51" stroke="#0D0F15" stroke-width="1.3" stroke-miterlimit="2"/>
<path d="M11 59C10.8333 57.6667 11.2751 55 14.5 55C17.5 55 18.5 57 18.5 58.5" stroke="#0D0F15" stroke-width="1.3" stroke-miterlimit="2"/>
<circle cx="14.5" cy="19.5" r="7.85" stroke="#C29117" stroke-width="1.3"/>
<line x1="1" y1="6.35" x2="28" y2="6.35" stroke="#0D0F15" stroke-width="1.3"/>
</svg>
