<svg width="34" height="60" viewBox="0 0 34 60" fill="none" xmlns="http://www.w3.org/2000/svg">
<path d="M33.1077 8.78631C33.1077 3.94168 29.1661 0 24.3218 0C21.0143 0 18.0547 1.82773 16.5539 4.67503C15.053 1.82773 12.0934 0 8.78596 0C3.94157 0 0 3.94168 0 8.78631C0 12.9803 2.95653 16.4895 6.91536 17.3587C4.1565 19.0844 3.2209 22.4083 4.29191 25.2111C6.67165 31.4379 7.61958 38.5024 7.19042 46.809C7.08119 48.9736 8.4874 52.4383 11.3708 57.1069C12.4889 58.9184 14.4268 60 16.5539 60C18.681 60 20.6188 58.9184 21.737 57.1069C24.6202 52.4383 26.0266 48.9737 25.9173 46.809V46.8081C25.4883 38.5024 26.4361 31.438 28.8158 25.2111C29.9272 22.3025 28.8401 19.007 26.2124 17.3587C30.1496 16.4908 33.1077 12.9812 33.1077 8.78631ZM27.6475 24.7649C25.2049 31.1577 24.2301 38.3892 24.6684 46.8727C24.7629 48.7526 23.3817 52.0644 20.6736 56.45C19.7843 57.8902 18.2444 58.7498 16.5538 58.7498C14.8631 58.7498 13.3232 57.89 12.4339 56.45C9.72519 52.064 8.34388 48.752 8.43913 46.8727C8.87733 38.3892 7.90263 31.1576 5.46006 24.7649C4.48089 22.2033 5.58608 19.4687 7.87691 18.2444C7.81231 18.6742 7.7678 19.1073 7.7678 19.5463C7.7678 24.391 11.7095 28.3326 16.5538 28.3326C21.398 28.3326 25.3397 24.391 25.3397 19.5463C25.3397 19.1024 25.2943 18.6643 25.2281 18.23C27.4353 19.4054 28.6549 22.1291 27.6475 24.7649ZM24.3217 16.3226C24.2587 16.3371 23.988 16.2923 23.7785 16.5838C23.6613 16.7477 23.6301 16.958 23.6954 17.149C23.9572 17.9184 24.0897 18.7253 24.0897 19.5465C24.0897 23.702 20.709 27.0828 16.5538 27.0828C12.3986 27.0828 9.0178 23.702 9.0178 19.5465C9.0178 18.7253 9.15028 17.9184 9.41207 17.149C9.53798 16.7808 9.24976 16.3226 8.78584 16.3226C4.63052 16.3226 1.24988 12.9419 1.24988 8.78631C1.24988 4.63075 4.63063 1.25 8.78584 1.25C12.0683 1.25 14.9509 3.34869 15.9586 6.47211C16.0423 6.73026 16.2827 6.90514 16.5538 6.90514C16.8247 6.90514 17.0652 6.73026 17.1489 6.47211C18.1566 3.34869 21.0392 1.25 24.3217 1.25C28.477 1.25 31.8576 4.63075 31.8576 8.78631C31.8576 12.9419 28.477 16.3226 24.3217 16.3226Z" fill="#0D0F15"/>
<path d="M16.5538 14.2363C13.6247 14.2363 11.2412 16.6195 11.2412 19.5489C11.2412 22.4783 13.6246 24.8614 16.5538 24.8614C19.4829 24.8614 21.8663 22.4783 21.8663 19.5489C21.8663 16.6195 19.4828 14.2363 16.5538 14.2363ZM16.5538 23.6114C14.3138 23.6114 12.4912 21.7888 12.4912 19.5489C12.4912 17.3089 14.3138 15.4863 16.5538 15.4863C18.7937 15.4863 20.6163 17.3089 20.6163 19.5489C20.6163 21.7888 18.7937 23.6114 16.5538 23.6114Z" fill="#C29117"/>
<path d="M14.0996 8.78837C14.0996 5.85897 11.7162 3.47583 8.78706 3.47583C5.8579 3.47583 3.47452 5.85897 3.47452 8.78837C3.47452 11.7178 5.8579 14.1009 8.78706 14.1009C11.7162 14.1009 14.0996 11.7178 14.0996 8.78837ZM8.78706 12.8509C6.54708 12.8509 4.72452 11.0283 4.72452 8.78837C4.72452 6.5484 6.54708 4.72583 8.78706 4.72583C11.027 4.72583 12.8496 6.5484 12.8496 8.78837C12.8496 11.0283 11.027 12.8509 8.78706 12.8509Z" fill="#C29117"/>
<path d="M24.3205 3.47583C21.3915 3.47583 19.008 5.85897 19.008 8.78837C19.008 11.7178 21.3913 14.1009 24.3205 14.1009C27.2495 14.1009 29.633 11.7178 29.633 8.78837C29.633 5.85897 27.2495 3.47583 24.3205 3.47583ZM24.3205 12.8508C22.0805 12.8508 20.258 11.0282 20.258 8.78825C20.258 6.54828 22.0805 4.72572 24.3205 4.72572C26.5605 4.72572 28.383 6.54828 28.383 8.78825C28.383 11.0282 26.5605 12.8508 24.3205 12.8508Z" fill="#C29117"/>
<path d="M17.8563 30.8699H15.2513C13.6301 30.8699 12.3112 32.1888 12.3112 33.8102V42.5532C12.3112 44.1745 13.6301 45.4935 15.2513 45.4935H17.8563C19.4774 45.4935 20.7964 44.1745 20.7964 42.5532V33.8102C20.7964 32.1889 19.4773 30.8699 17.8563 30.8699ZM19.5464 42.5533C19.5464 43.4852 18.7883 44.2436 17.8563 44.2436H15.2513C14.3193 44.2436 13.5612 43.4852 13.5612 42.5533V33.8103C13.5612 32.8784 14.3192 32.12 15.2513 32.12H17.8563C18.7882 32.12 19.5464 32.8784 19.5464 33.8103V42.5533Z" fill="#C29117"/>
</svg>
