<svg width="30" height="18" viewBox="0 0 30 18" fill="none" xmlns="http://www.w3.org/2000/svg">
<path d="M8.56322 14.9256H5.44625C5.31176 14.9256 5.18277 14.8722 5.08767 14.7771C4.99257 14.682 4.93915 14.553 4.93915 14.4185C4.93915 14.284 4.99257 14.1551 5.08767 14.06C5.18277 13.9649 5.31176 13.9114 5.44625 13.9114H8.56322C8.69771 13.9114 8.82669 13.9649 8.92179 14.06C9.01689 14.1551 9.07032 14.284 9.07032 14.4185C9.07032 14.553 9.01689 14.682 8.92179 14.7771C8.82669 14.8722 8.69771 14.9256 8.56322 14.9256V14.9256Z" fill="#C29117"/>
<path d="M21.2103 14.9256H14.4016C14.2671 14.9256 14.1382 14.8722 14.0431 14.7771C13.948 14.682 13.8945 14.553 13.8945 14.4185C13.8945 14.284 13.948 14.1551 14.0431 14.06C14.1382 13.9649 14.2671 13.9114 14.4016 13.9114H21.2103C21.3448 13.9114 21.4738 13.9649 21.5689 14.06C21.664 14.1551 21.7174 14.284 21.7174 14.4185C21.7174 14.553 21.664 14.682 21.5689 14.7771C21.4738 14.8722 21.3448 14.9256 21.2103 14.9256Z" fill="#C29117"/>
<path d="M29.4828 14.9256H27.0419C26.9074 14.9256 26.7785 14.8722 26.6834 14.7771C26.5883 14.682 26.5348 14.553 26.5348 14.4185C26.5348 14.284 26.5883 14.1551 26.6834 14.06C26.7785 13.9649 26.9074 13.9114 27.0419 13.9114H28.9858V9.98311C28.9863 9.72915 28.925 9.47888 28.8073 9.25389C28.6895 9.0289 28.5187 8.83596 28.3097 8.6917L26.7546 7.64031C26.7002 7.6017 26.6533 7.5536 26.616 7.49832L22.9243 1.79515C22.7707 1.55454 22.5587 1.35674 22.3081 1.22019C22.0575 1.08363 21.7763 1.01277 21.4909 1.01421H7.34957C7.21508 1.01421 7.08609 0.960787 6.99099 0.865688C6.89589 0.770588 6.84247 0.641605 6.84247 0.507114C6.84247 0.372623 6.89589 0.24364 6.99099 0.148541C7.08609 0.053441 7.21508 1.50115e-05 7.34957 1.50115e-05H21.4909C21.9457 -0.00150015 22.3935 0.111706 22.793 0.329162C23.1924 0.546617 23.5306 0.861299 23.7762 1.2441L27.4104 6.85938L28.8641 7.85329C29.2128 8.08874 29.4986 8.40591 29.6966 8.77714C29.8945 9.14836 29.9987 9.56239 30 9.98311V14.4185C30 14.486 29.9866 14.5528 29.9605 14.615C29.9343 14.6772 29.8961 14.7335 29.8479 14.7807C29.7997 14.828 29.7426 14.8651 29.6799 14.89C29.6172 14.9149 29.5502 14.927 29.4828 14.9256V14.9256Z" fill="#C29117"/>
<path d="M11.4807 17.9581C10.8027 17.9581 10.14 17.757 9.57624 17.3804C9.01251 17.0037 8.57313 16.4683 8.31368 15.8419C8.05422 15.2156 7.98633 14.5263 8.1186 13.8613C8.25087 13.1964 8.57736 12.5856 9.05677 12.1061C9.53618 11.6267 10.147 11.3003 10.812 11.168C11.4769 11.0357 12.1662 11.1036 12.7926 11.3631C13.4189 11.6225 13.9543 12.0619 14.331 12.6256C14.7077 13.1893 14.9087 13.8521 14.9087 14.5301C14.9087 15.4393 14.5476 16.3112 13.9047 16.9541C13.2618 17.5969 12.3899 17.9581 11.4807 17.9581ZM11.4807 12.1163C11.0033 12.1163 10.5366 12.2579 10.1397 12.5231C9.74275 12.7883 9.43337 13.1653 9.25067 13.6064C9.06798 14.0474 9.02018 14.5328 9.11332 15.001C9.20645 15.4692 9.43634 15.8993 9.77392 16.2369C10.1115 16.5745 10.5416 16.8044 11.0098 16.8975C11.4781 16.9907 11.9634 16.9429 12.4044 16.7602C12.8455 16.5775 13.2225 16.2681 13.4877 15.8711C13.753 15.4742 13.8945 15.0075 13.8945 14.5301C13.8936 13.8902 13.639 13.2768 13.1865 12.8243C12.7341 12.3718 12.1206 12.1172 11.4807 12.1163V12.1163Z" fill="#C29117"/>
<path d="M24.121 17.9581C23.443 17.9581 22.7802 17.757 22.2165 17.3804C21.6528 17.0037 21.2134 16.4683 20.9539 15.8419C20.6945 15.2156 20.6266 14.5263 20.7589 13.8613C20.8911 13.1964 21.2176 12.5856 21.697 12.1061C22.1764 11.6267 22.7873 11.3003 23.4522 11.168C24.1172 11.0357 24.8064 11.1036 25.4328 11.3631C26.0592 11.6225 26.5946 12.0619 26.9713 12.6256C27.3479 13.1893 27.549 13.8521 27.549 14.5301C27.5481 15.439 27.1866 16.3104 26.544 16.9531C25.9013 17.5958 25.0299 17.9572 24.121 17.9581V17.9581ZM24.121 12.1163C23.6436 12.1163 23.1769 12.2579 22.78 12.5231C22.383 12.7883 22.0736 13.1653 21.8909 13.6064C21.7082 14.0474 21.6604 14.5328 21.7536 15.001C21.8467 15.4692 22.0766 15.8993 22.4142 16.2369C22.7518 16.5745 23.1818 16.8044 23.6501 16.8975C24.1183 16.9907 24.6036 16.9429 25.0447 16.7602C25.4858 16.5775 25.8628 16.2681 26.128 15.8711C26.3932 15.4742 26.5348 15.0075 26.5348 14.5301C26.533 13.8905 26.2781 13.2776 25.8258 12.8253C25.3735 12.373 24.7606 12.1181 24.121 12.1163V12.1163Z" fill="#C29117"/>
<path d="M27.0419 7.7282H18.8168C18.6823 7.7282 18.5533 7.67478 18.4582 7.57968C18.3631 7.48458 18.3097 7.35559 18.3097 7.2211V0.507107C18.3097 0.372616 18.3631 0.243633 18.4582 0.148533C18.5533 0.0534337 18.6823 7.6646e-06 18.8168 7.6646e-06H21.4064C21.8872 -0.00110416 22.3607 0.118761 22.7831 0.34857C23.2055 0.578379 23.5633 0.910748 23.8236 1.31509L27.4679 6.94727C27.5182 7.02359 27.5468 7.11216 27.5506 7.20349C27.5544 7.29482 27.5333 7.38547 27.4896 7.46572C27.4458 7.54597 27.381 7.61279 27.3022 7.65903C27.2233 7.70527 27.1333 7.72918 27.0419 7.7282V7.7282ZM19.3239 6.714H26.1089L22.9716 1.86613C22.8032 1.60421 22.5715 1.3889 22.2979 1.24002C22.0244 1.09114 21.7178 1.01348 21.4064 1.01421H19.3239V6.714Z" fill="#C29117"/>
<path d="M9.19201 4.71604H3.89113C3.75664 4.71604 3.62766 4.66262 3.53256 4.56752C3.43746 4.47242 3.38403 4.34343 3.38403 4.20894C3.38403 4.07445 3.43746 3.94547 3.53256 3.85037C3.62766 3.75527 3.75664 3.70184 3.89113 3.70184H9.19201C9.3265 3.70184 9.45548 3.75527 9.55058 3.85037C9.64568 3.94547 9.69911 4.07445 9.69911 4.20894C9.69911 4.34343 9.64568 4.47242 9.55058 4.56752C9.45548 4.66262 9.3265 4.71604 9.19201 4.71604V4.71604Z" fill="#C29117"/>
<path d="M6.80527 8.39417H0.507099C0.372608 8.39417 0.243626 8.34075 0.148526 8.24565C0.0534264 8.15055 0 8.02156 0 7.88707C0 7.75258 0.0534264 7.6236 0.148526 7.5285C0.243626 7.4334 0.372608 7.37997 0.507099 7.37997H6.80527C6.93976 7.37997 7.06875 7.4334 7.16385 7.5285C7.25895 7.6236 7.31237 7.75258 7.31237 7.88707C7.31237 8.02156 7.25895 8.15055 7.16385 8.24565C7.06875 8.34075 6.93976 8.39417 6.80527 8.39417V8.39417Z" fill="#C29117"/>
<path d="M6.22378 11.4706H2.44082C2.30632 11.4706 2.17734 11.4172 2.08224 11.3221C1.98714 11.227 1.93372 11.098 1.93372 10.9635C1.93372 10.829 1.98714 10.7 2.08224 10.6049C2.17734 10.5098 2.30632 10.4564 2.44082 10.4564H6.22378C6.35827 10.4564 6.48725 10.5098 6.58235 10.6049C6.67745 10.7 6.73088 10.829 6.73088 10.9635C6.73088 11.098 6.67745 11.227 6.58235 11.3221C6.48725 11.4172 6.35827 11.4706 6.22378 11.4706V11.4706Z" fill="#C29117"/>
</svg>
