<svg width="21" height="17" viewBox="0 0 21 17" fill="none" xmlns="http://www.w3.org/2000/svg">
<path d="M20.9231 2.01254C20.145 2.35385 19.3159 2.58008 18.4515 2.68992C19.3408 2.159 20.0195 1.32469 20.3385 0.319077C19.5095 0.813385 18.5941 1.16254 17.6185 1.35738C16.8313 0.519154 15.7093 0 14.4853 0C12.1105 0 10.1987 1.92754 10.1987 4.29054C10.1987 4.63054 10.2275 4.95746 10.2981 5.26869C6.732 5.09477 3.57654 3.38562 1.45677 0.782C1.08669 1.42408 0.869615 2.159 0.869615 2.95015C0.869615 4.43569 1.63462 5.75254 2.77492 6.51492C2.08577 6.50185 1.40969 6.30177 0.836923 5.98662C0.836923 5.99969 0.836923 6.01669 0.836923 6.03369C0.836923 8.11815 2.32377 9.84954 4.27354 10.2484C3.92438 10.3438 3.54385 10.3896 3.14892 10.3896C2.87431 10.3896 2.59708 10.3739 2.33685 10.3164C2.89262 12.0151 4.46969 13.2639 6.34492 13.3045C4.88554 14.4461 3.03254 15.1339 1.02654 15.1339C0.674769 15.1339 0.337385 15.1182 0 15.0751C1.90008 16.3004 4.15192 17 6.58031 17C14.4735 17 18.7889 10.4615 18.7889 4.794C18.7889 4.60438 18.7824 4.42131 18.7732 4.23954C19.6245 3.63538 20.3398 2.88085 20.9231 2.01254Z" fill="#0D0F15"/>
</svg>
