<svg width="50" height="30" viewBox="0 0 50 30" fill="none" xmlns="http://www.w3.org/2000/svg">
<rect x="0.5" y="0.5" width="49" height="29" rx="2.5" fill="white" stroke="#EDEDED"/>
<path d="M19.0942 19.7381L20.7696 10.314H23.3874L21.7644 19.7381H19.0942Z" fill="#3C58BF"/>
<path d="M19.0942 19.7381L21.2408 10.314H23.3874L21.7644 19.7381H19.0942Z" fill="#293688"/>
<path d="M31.2408 10.4188C30.7173 10.2094 29.8796 10 28.8325 10C26.2146 10 24.3298 11.3089 24.3298 13.1937C24.3298 14.6073 25.6387 15.3403 26.6858 15.8115C27.733 16.2827 28.0471 16.5969 28.0471 17.0157C28.0471 17.644 27.2094 17.9581 26.4764 17.9581C25.4293 17.9581 24.8534 17.8011 23.9633 17.4346L23.5968 17.2775L23.2303 19.4241C23.8586 19.6859 25.0105 19.9477 26.2146 19.9477C28.9895 19.9477 30.822 18.6388 30.822 16.6492C30.822 15.5497 30.1414 14.712 28.5707 14.0314C27.6283 13.5602 27.0523 13.2984 27.0523 12.8272C27.0523 12.4084 27.5235 11.9895 28.5707 11.9895C29.4607 11.9895 30.089 12.1466 30.5602 12.356L30.822 12.4607L31.2408 10.4188Z" fill="#3C58BF"/>
<path d="M31.2408 10.4188C30.7173 10.2094 29.8796 10 28.8325 10C26.2146 10 24.801 11.3089 24.801 13.1937C24.801 14.6073 25.6387 15.3403 26.6858 15.8115C27.733 16.2827 28.0471 16.5969 28.0471 17.0157C28.0471 17.644 27.2094 17.9581 26.4764 17.9581C25.4293 17.9581 24.8534 17.8011 23.9633 17.4346L23.5968 17.2775L23.2303 19.4241C23.8586 19.6859 25.0105 19.9477 26.2146 19.9477C28.9895 19.9477 30.822 18.6388 30.822 16.6492C30.822 15.5497 30.1414 14.712 28.5707 14.0314C27.6283 13.5602 27.0523 13.2984 27.0523 12.8272C27.0523 12.4084 27.5235 11.9895 28.5707 11.9895C29.4607 11.9895 30.089 12.1466 30.5602 12.356L30.822 12.4607L31.2408 10.4188Z" fill="#293688"/>
<path d="M35.7435 10.314C35.1153 10.314 34.6441 10.3663 34.3823 10.9946L30.4556 19.7381H33.2828L33.8064 18.1674H37.1571L37.4713 19.7381H39.9844L37.7854 10.314H35.7435ZM34.5393 16.5967C34.6964 16.1255 35.5865 13.8218 35.5865 13.8218C35.5865 13.8218 35.7959 13.2459 35.953 12.8794L36.11 13.7695C36.11 13.7695 36.6336 16.1255 36.7383 16.6491H34.5393V16.5967Z" fill="#3C58BF"/>
<path d="M36.3718 10.314C35.7435 10.314 35.2723 10.3663 35.0105 10.9946L30.4556 19.7381H33.2828L33.8064 18.1674H37.1571L37.4713 19.7381H39.9844L37.7854 10.314H36.3718ZM34.5393 16.5967C34.7488 16.0731 35.5865 13.8218 35.5865 13.8218C35.5865 13.8218 35.7959 13.2459 35.953 12.8794L36.11 13.7695C36.11 13.7695 36.6336 16.1255 36.7383 16.6491H34.5393V16.5967Z" fill="#293688"/>
<path d="M14.2775 16.9112L14.0158 15.55C13.5446 13.9793 12.0262 12.2515 10.3508 11.4138L12.7069 19.7908H15.5341L19.7749 10.3667H16.9477L14.2775 16.9112Z" fill="#3C58BF"/>
<path d="M14.2775 16.9112L14.0158 15.55C13.5446 13.9793 12.0262 12.2515 10.3508 11.4138L12.7069 19.7908H15.5341L19.7749 10.3667H17.4713L14.2775 16.9112Z" fill="#293688"/>
<path d="M7 10.314L7.47121 10.4187C10.822 11.204 13.1257 13.1936 14.0157 15.5496L13.0733 11.0993C12.9162 10.471 12.445 10.314 11.8691 10.314H7Z" fill="#FFBC00"/>
<path d="M7 10.314C10.3508 11.0993 13.1257 13.1412 14.0157 15.4972L13.1257 11.7799C12.9686 11.1517 12.445 10.7852 11.8691 10.7852L7 10.314Z" fill="#F7981D"/>
<path d="M7 10.314C10.3508 11.0993 13.1257 13.1412 14.0157 15.4972L13.3874 13.4553C13.2304 12.8271 13.021 12.1988 12.288 11.937L7 10.314Z" fill="#ED7C00"/>
<path d="M16.8954 16.5969L15.1152 14.8168L14.2776 16.8064L14.0681 15.4975C13.5969 13.9268 12.0786 12.199 10.4032 11.3613L12.7592 19.7383H15.5865L16.8954 16.5969Z" fill="#051244"/>
<path d="M21.7644 19.7382L19.5131 17.4346L19.0942 19.7382H21.7644Z" fill="#051244"/>
<path d="M27.7853 16.4922C27.9948 16.7016 28.0995 16.8587 28.0471 17.0681C28.0471 17.6964 27.2094 18.0105 26.4764 18.0105C25.4293 18.0105 24.8534 17.8534 23.9633 17.487L23.5968 17.3299L23.2303 19.4765C23.8586 19.7383 25.0105 20 26.2146 20C27.89 20 29.2513 19.5288 30.0366 18.6911L27.7853 16.4922Z" fill="#051244"/>
<path d="M30.822 19.738H33.2828L33.8063 18.1674H37.1571L37.4712 19.738H39.9843L39.0943 15.916L35.9529 12.8794L36.11 13.7171C36.11 13.7171 36.6336 16.0731 36.7383 16.5967H34.5393C34.7487 16.0731 35.5864 13.8218 35.5864 13.8218C35.5864 13.8218 35.7959 13.2459 35.9529 12.8794" fill="#051244"/>
</svg>
