<svg width="52" height="52" viewBox="0 0 52 52" fill="none" xmlns="http://www.w3.org/2000/svg">
<path d="M37.6996 33.3202C37.6996 33.3202 37.2155 34.9582 35.555 34.5515C33.8947 34.1447 29.9622 33.1978 29.9622 33.1978" stroke="white" stroke-width="1.3" stroke-miterlimit="10" stroke-linecap="round" stroke-linejoin="round"/>
<path d="M37.6996 33.3202C37.6996 33.3202 37.2155 34.9582 35.555 34.5515C33.8947 34.1447 29.9622 33.1978 29.9622 33.1978" stroke="white" stroke-width="1.3" stroke-miterlimit="10" stroke-linecap="round" stroke-linejoin="round"/>
<path d="M17.5344 46.013L10.517 30.7129C10.2525 30.1361 9.57045 29.883 8.99368 30.1475L1.67025 33.5064C1.09349 33.7708 0.840364 34.4529 1.10485 35.0297L8.12224 50.3299C8.38673 50.9067 9.06883 51.1598 9.6456 50.8953L16.969 47.5364C17.5458 47.2718 17.7989 46.5898 17.5344 46.013Z" stroke="white" stroke-width="1.3" stroke-miterlimit="10" stroke-linecap="round" stroke-linejoin="round"/>
<path d="M21.0309 41.305L16.3661 31.1343C16.0748 30.4992 15.3238 30.2204 14.6887 30.5118L11.1658 32.1275L16.8855 44.5982L20.4083 42.9825C21.0435 42.6913 21.3222 41.9403 21.0309 41.305Z" stroke="white" stroke-width="1.3" stroke-miterlimit="10" stroke-linecap="round" stroke-linejoin="round"/>
<path d="M36.282 8.78658C36.282 8.78658 35.148 7.60901 33.6215 7.60901C32.0951 7.60901 30.9829 8.72118 30.9829 9.86606C30.9829 11.0109 32.4221 11.9268 34.243 12.4066C36.064 12.8864 36.4492 13.8277 36.4492 14.8309C36.4492 15.834 35.5624 17.1278 33.4835 17.1278C31.4045 17.1278 30.4741 15.6159 30.4741 15.6159" stroke="#C29117" stroke-width="1.3" stroke-miterlimit="10" stroke-linecap="round" stroke-linejoin="round"/>
<path d="M33.4617 5.84253V7.12181" stroke="#C29117" stroke-width="1.3" stroke-miterlimit="10" stroke-linecap="round" stroke-linejoin="round"/>
<path d="M33.4617 17.6151V18.8944" stroke="#C29117" stroke-width="1.3" stroke-miterlimit="10" stroke-linecap="round" stroke-linejoin="round"/>
<path d="M33.4616 23.7367C39.7402 23.7367 44.83 18.6469 44.83 12.3683C44.83 6.08978 39.7402 1 33.4616 1C27.183 1 22.0933 6.08978 22.0933 12.3683C22.0933 18.6469 27.183 23.7367 33.4616 23.7367Z" stroke="white" stroke-width="1.3" stroke-miterlimit="10" stroke-linecap="round" stroke-linejoin="round"/>
<path d="M44.9171 36.7154C47.2027 35.7044 49.14 34.8475 49.3571 34.7515C49.7347 34.5578 51.6338 33.4185 50.7828 31.4839C49.7967 29.4246 47.527 30.398 47.3363 30.4693L37.6998 33.3203C37.6998 33.3203 38.3595 31.3821 36.3617 30.5847C30.8252 28.3746 30.1649 28.0007 28.7638 27.9785L28.7636 27.9783C24.432 27.9928 23.6473 28.0281 21.4947 28.9916C20.3685 29.4956 19.299 30.1062 18.2969 30.8105C17.7777 31.1754 17.213 31.4689 16.6169 31.6812L20.4964 40.1397L23.0852 39.1568C25.0891 38.5036 27.1898 38.4376 28.8723 39.109L32.4453 40.5354C33.2263 40.8046 35.0204 41.2237 36.8822 40.2695C36.8831 40.2691 36.8838 40.2688 36.8838 40.2688C36.9637 40.2334 39.1644 39.2599 41.6969 38.1398" stroke="white" stroke-width="1.3" stroke-miterlimit="10" stroke-linecap="round" stroke-linejoin="round"/>
<path d="M46.5997 3.38584C44.675 1.89076 42.2575 1 39.6317 1C38.5625 1 37.5277 1.14789 36.5466 1.42395C41.3261 2.76843 44.8299 7.15913 44.8299 12.3683C44.8299 17.5776 41.3261 21.9683 36.5466 23.3127C37.5277 23.5887 38.5623 23.7367 39.6317 23.7367C45.9102 23.7367 51 18.6469 51 12.3683C51 9.98673 50.2671 7.77644 49.0153 5.94986" stroke="white" stroke-width="1.3" stroke-miterlimit="10" stroke-linecap="round" stroke-linejoin="round"/>
<path d="M41 38.5L46.5 36" stroke="white" stroke-width="1.3" stroke-miterlimit="2"/>
<path d="M46 3C46.3333 3.16667 47.4 4 49 6" stroke="white" stroke-width="1.3" stroke-miterlimit="2"/>
</svg>
