<svg width="49" height="50" viewBox="0 0 49 50" fill="none" xmlns="http://www.w3.org/2000/svg">
<path d="M23.718 25H25.0992V49.3094H23.718V25Z" fill="white"/>
<path d="M24.4088 25.6906C24.2983 25.6906 24.1878 25.663 24.0911 25.6077L0.886719 13.453L1.52208 12.2238L24.4088 24.2265L47.2956 12.2376L47.9309 13.4668L24.7265 25.6215C24.6298 25.663 24.5193 25.6906 24.4088 25.6906Z" fill="white"/>
<path d="M33.2484 30.5249C33.1241 30.5249 32.9998 30.4834 32.8893 30.4144C32.6821 30.2901 32.5578 30.0691 32.5578 29.8343V20.7873L9.20142 9.11605L9.82296 7.88677L33.5661 19.7514C33.8009 19.8619 33.9528 20.1105 33.9528 20.373V28.7293L39.2014 26.1602V17.4172L18.6213 7.04422L19.2429 5.81494L40.2097 16.3812C40.4445 16.5056 40.5826 16.7404 40.5826 17.0028V26.6022C40.5826 26.8647 40.4307 27.1133 40.1959 27.2238L33.5661 30.4696C33.4556 30.4973 33.3589 30.5249 33.2484 30.5249Z" fill="#C29117"/>
<path d="M24.4087 50C24.2982 50 24.1877 49.9724 24.091 49.9171L17.254 46.3398L17.8894 45.1105L24.4087 48.5221L46.9225 36.7403V13.2597L24.4087 1.46409L1.89489 13.2597V36.7403L15.3203 43.7707L14.6849 45L0.8866 37.7762C0.665605 37.6519 0.513672 37.4171 0.513672 37.1685V12.8453C0.513672 12.5829 0.651793 12.3481 0.8866 12.2376L24.091 0.0828729C24.2982 -0.0276243 24.533 -0.0276243 24.7264 0.0828729L47.9308 12.2376C48.1518 12.3619 48.3037 12.5967 48.3037 12.8453V37.1547C48.3037 37.4171 48.1656 37.6519 47.9308 37.7624L24.7264 49.9171C24.6297 49.9724 24.5192 50 24.4087 50Z" fill="white"/>
<path d="M12.5 43L19 46.5" stroke="white" stroke-width="1.3" stroke-miterlimit="2"/>
</svg>
