<svg width="43" height="58" viewBox="0 0 43 58" fill="none" xmlns="http://www.w3.org/2000/svg">
<path d="M21.742 42.3213C19.7601 42.3213 17.914 41.3575 16.7601 39.7693C14.9819 40.5702 12.8914 40.4752 11.181 39.4842C9.47055 38.4933 8.34386 36.7286 8.14024 34.7874C6.19906 34.5838 4.43435 33.4706 3.4434 31.7467C2.45245 30.0363 2.35743 27.9458 3.15833 26.1675C1.58367 25.0408 0.619873 23.1811 0.619873 21.2127C0.619873 19.2444 1.58367 17.3847 3.17191 16.2444C2.371 14.4661 2.46603 12.3756 3.45698 10.6652C4.44793 8.95481 6.21263 7.82811 8.15381 7.63806C8.34386 5.69689 9.47055 3.93218 11.1945 2.94123C12.9049 1.95028 14.9954 1.85526 16.7737 2.65616C17.914 1.06793 19.7737 0.104126 21.742 0.104126C23.7239 0.104126 25.5701 1.06793 26.7104 2.65616C28.4887 1.85526 30.5792 1.95028 32.2896 2.94123C34 3.93218 35.1267 5.68331 35.3303 7.63806C37.2715 7.82811 39.0362 8.95481 40.0271 10.6652C41.0181 12.3756 41.1131 14.4661 40.3122 16.2444C41.9004 17.3847 42.8642 19.2444 42.8642 21.2127C42.8642 23.1811 41.9004 25.0408 40.3122 26.1811C41.1131 27.9593 41.0181 30.0498 40.0271 31.7602C39.0362 33.4706 37.2715 34.5973 35.3303 34.801C35.1267 36.7421 34.0135 38.5068 32.2896 39.4978C30.5792 40.4888 28.4887 40.5838 26.7104 39.7829C25.5701 41.3575 23.7239 42.3213 21.742 42.3213ZM17.0045 38.2082C17.0588 38.2082 17.1267 38.2218 17.181 38.2354C17.3574 38.2897 17.5068 38.3983 17.6018 38.5611C18.457 40.0544 20.0452 40.9774 21.7556 40.9774C23.466 40.9774 25.0543 40.0544 25.9095 38.5611C26.0045 38.3983 26.1538 38.2897 26.3167 38.2354C26.4932 38.1946 26.6832 38.2082 26.8325 38.3032C28.3122 39.172 30.1448 39.172 31.638 38.3168C33.1312 37.4616 34.0271 35.8734 34.0271 34.1494C34.0271 33.9729 34.095 33.7964 34.2307 33.6607C34.3529 33.5249 34.5294 33.4571 34.7194 33.4571C36.4298 33.4571 38.0316 32.5476 38.8868 31.0679C39.7421 29.5883 39.7421 27.7421 38.8733 26.2625C38.7783 26.1132 38.7511 25.9231 38.8054 25.7467C38.8597 25.5702 38.9683 25.4209 39.1312 25.3258C40.6244 24.4706 41.5475 22.8824 41.5475 21.172C41.5475 19.4616 40.6244 17.8734 39.1312 17.0182C38.9683 16.9231 38.8597 16.7738 38.8054 16.5973C38.7511 16.4209 38.7783 16.2308 38.8733 16.0815C39.7421 14.6019 39.7421 12.7693 38.8868 11.2896C38.0316 9.82358 36.457 8.90051 34.7466 8.90051C34.733 8.90051 34.733 8.90051 34.7194 8.90051C34.543 8.90051 34.3665 8.83263 34.2443 8.69689C34.1086 8.57472 34.0407 8.39824 34.0407 8.2082C34.0543 6.49779 33.1312 4.89598 31.6516 4.04078C30.1719 3.18557 28.3258 3.18557 26.8461 4.05435C26.6968 4.14938 26.5068 4.17653 26.3303 4.12223C26.1538 4.06793 26.0045 3.95933 25.923 3.81001C25.0678 2.3168 23.4796 1.39372 21.7692 1.39372C20.0588 1.39372 18.4434 2.37109 17.5882 3.86431C17.4932 4.0272 17.3439 4.1358 17.1674 4.17652C16.9909 4.21725 16.8009 4.20367 16.6516 4.10865C15.1719 3.23987 13.3393 3.23987 11.8597 4.09508C10.3801 4.95028 9.47055 6.55209 9.47055 8.2625C9.47055 8.43897 9.40268 8.61544 9.26693 8.75119C9.14476 8.87336 8.96829 8.95481 8.79182 8.95481C8.77824 8.95481 8.77824 8.95481 8.76467 8.95481C7.06784 8.95481 5.4796 9.86431 4.6244 11.3439C3.76919 12.8236 3.76919 14.6697 4.63797 16.1358C4.733 16.2851 4.76015 16.4752 4.70585 16.6516C4.65155 16.8281 4.54295 16.9774 4.39363 17.0725C2.90042 17.9277 1.97734 19.5159 1.97734 21.2263C1.97734 22.9367 2.90042 24.5249 4.39363 25.3801C4.55652 25.4752 4.66512 25.6245 4.70585 25.801C4.74657 25.9774 4.733 26.1675 4.63797 26.3168C3.76919 27.7964 3.76919 29.629 4.6244 31.1087C5.4796 32.5883 7.05426 33.4978 8.76467 33.4978H8.79182C8.96829 33.4978 9.14476 33.5657 9.26693 33.7014C9.38911 33.8236 9.47055 34.0001 9.47055 34.1901C9.45698 35.9005 10.3801 37.5023 11.8597 38.3575C13.3393 39.2127 15.1855 39.2127 16.6516 38.344C16.7601 38.2489 16.8823 38.2082 17.0045 38.2082Z" fill="white"/>
<path d="M31.4616 58.0001C31.068 58.0001 30.6743 57.8779 30.3349 57.62L21.9729 51.5793L13.1087 57.6471C12.4978 58.0544 11.7512 58.1087 11.1132 57.7693C10.4616 57.4299 10.0815 56.7784 10.0815 56.0589V38.3711C10.0815 37.991 10.3802 37.6924 10.7603 37.6924C11.1404 37.6924 11.439 37.991 11.439 38.3711V56.0453C11.439 56.2761 11.5476 56.4526 11.7512 56.5612C11.9548 56.6698 12.1585 56.6562 12.3485 56.5204L21.6064 50.1811C21.8372 50.0182 22.1494 50.0182 22.3938 50.1946L31.1358 56.5069C31.3259 56.6426 31.5431 56.6562 31.7467 56.5476C31.9503 56.439 32.0589 56.2625 32.0589 56.0317V38.3711C32.0589 37.991 32.3576 37.6924 32.7377 37.6924C33.1177 37.6924 33.4164 37.991 33.4164 38.3711V56.0453C33.4164 56.7919 33.0227 57.4299 32.3576 57.7693C32.0725 57.9186 31.7603 58.0001 31.4616 58.0001Z" fill="white"/>
<path d="M16.7465 29.5747C16.6107 29.5747 16.4614 29.534 16.3528 29.4389C16.1492 29.2896 16.0406 29.0453 16.0813 28.8009L16.76 23.6426L13.1763 19.8688C12.9999 19.6923 12.9456 19.4344 13.027 19.1901C13.1085 18.9593 13.2985 18.7828 13.5429 18.7285L18.6605 17.7783L21.1447 13.2037C21.2668 12.9865 21.4976 12.8507 21.742 12.8507C21.9863 12.8507 22.2171 12.9865 22.3392 13.2037L24.8234 17.7783L29.941 18.7285C30.1854 18.7693 30.389 18.9457 30.4569 19.1901C30.5383 19.4208 30.4705 19.6923 30.3076 19.8688L26.7239 23.6426L27.4026 28.8009C27.4297 29.0453 27.3347 29.2896 27.1311 29.4389C26.9275 29.5883 26.6696 29.6154 26.4388 29.5068L21.742 27.267L17.0451 29.5068C16.9501 29.5475 16.8415 29.5747 16.7465 29.5747ZM21.742 25.8281C21.837 25.8281 21.9456 25.8552 22.027 25.896L25.8958 27.7421L25.3392 23.4932C25.3121 23.2896 25.38 23.086 25.5157 22.9367L28.4614 19.8281L24.2533 19.0408C24.0496 19 23.8732 18.8779 23.7781 18.7014L21.7284 14.9412L19.6786 18.7014C19.5836 18.8779 19.4071 19.0136 19.2035 19.0408L14.9953 19.8281L17.941 22.9367C18.0768 23.086 18.1447 23.2896 18.1175 23.4932L17.561 27.7421L21.4297 25.896C21.5383 25.8552 21.6469 25.8281 21.742 25.8281Z" fill="#C29117"/>
<path d="M21.9864 51.4299C21.6063 51.4299 21.3076 51.1312 21.3076 50.7511V45.2127C21.3076 44.8326 21.6063 44.5339 21.9864 44.5339C22.3664 44.5339 22.6651 44.8326 22.6651 45.2127V50.7511C22.6651 51.1312 22.3529 51.4299 21.9864 51.4299Z" fill="white"/>
</svg>
