<svg width="52" height="55" viewBox="0 0 52 55" fill="none" xmlns="http://www.w3.org/2000/svg">
<path d="M25.5768 55C25.5173 54.9996 25.4583 54.9902 25.4017 54.9719C23.019 54.1863 20.6138 53.5544 18.2882 52.9394C12.6765 51.4556 7.38461 50.0549 4.95922 47.1671L4.84698 47.0493C-2.48197 39.5116 -0.0509573 33.4363 2.76053 26.4003C3.75098 24.0888 4.56842 21.707 5.20613 19.2745C6.74824 12.7188 5.15226 8.53021 3.54169 6.16991C3.46524 6.05816 3.43176 5.92255 3.44744 5.78806C3.46311 5.65358 3.52688 5.5293 3.62698 5.43814L8.85377 0.678249C8.93005 0.608251 9.02421 0.560719 9.12582 0.540911C9.22744 0.521102 9.33255 0.52979 9.42954 0.566013C15.5722 2.89265 20.9078 2.72878 25.2839 0.0800354C25.3718 0.0276531 25.4722 0 25.5745 0C25.6769 0 25.7773 0.0276531 25.8652 0.0800354C30.2424 2.72878 35.5758 2.89152 41.7196 0.566013C41.8165 0.52979 41.9216 0.521102 42.0233 0.540911C42.1249 0.560719 42.219 0.608251 42.2953 0.678249L47.5255 5.43477C47.6256 5.52593 47.6893 5.65021 47.705 5.7847C47.7207 5.91918 47.6872 6.0548 47.6108 6.16654C45.9991 8.52348 44.402 12.7121 45.9452 19.2711C46.5833 21.7026 47.4004 24.0836 48.3897 26.3947C51.2045 33.4363 53.6355 39.5116 46.2875 47.065L46.1753 47.1772C43.769 50.0549 38.4838 51.4545 32.8721 52.9371C30.5387 53.5533 28.1346 54.1874 25.7474 54.9719C25.6922 54.9897 25.6347 54.9992 25.5768 55ZM4.73811 5.94656C6.37674 8.55266 7.85039 12.9366 6.29706 19.527C5.6494 22.0141 4.81577 24.4489 3.80319 26.8111C0.917632 34.0323 -1.16657 39.2501 5.67078 46.2782L5.80547 46.4275C8.0165 49.0572 13.1411 50.413 18.5677 51.8484C20.8596 52.4545 23.2199 53.083 25.5768 53.8451C27.9337 53.0774 30.2907 52.4534 32.5791 51.8507C38.0147 50.413 43.1382 49.0572 45.3346 46.4432L45.4693 46.2939C52.3157 39.2501 50.2359 34.0323 47.3504 26.8133C46.3384 24.4525 45.5048 22.0191 44.8565 19.5337C43.3032 12.9377 44.7768 8.5549 46.4166 5.95329L41.7948 1.74224C35.5837 4.02061 30.129 3.84328 25.5768 1.2181C21.0245 3.84328 15.5722 4.02397 9.35883 1.74224L4.73811 5.94656Z" fill="white"/>
<path d="M34.8352 44.4702H16.3164C15.5722 44.4702 14.8585 44.1745 14.3323 43.6483C13.8061 43.1221 13.5105 42.4085 13.5105 41.6643V26.8291C13.5105 26.0849 13.8061 25.3712 14.3323 24.845C14.8585 24.3188 15.5722 24.0232 16.3164 24.0232H34.8352C35.5793 24.0232 36.293 24.3188 36.8192 24.845C37.3454 25.3712 37.641 26.0849 37.641 26.8291V41.6643C37.641 42.4085 37.3454 43.1221 36.8192 43.6483C36.293 44.1745 35.5793 44.4702 34.8352 44.4702ZM16.3186 25.1455C15.8721 25.1455 15.4439 25.3229 15.1282 25.6386C14.8125 25.9544 14.6351 26.3826 14.6351 26.8291V41.6643C14.6351 42.1108 14.8125 42.539 15.1282 42.8547C15.4439 43.1705 15.8721 43.3478 16.3186 43.3478H34.8374C35.2839 43.3478 35.7121 43.1705 36.0278 42.8547C36.3436 42.539 36.5209 42.1108 36.5209 41.6643V26.8291C36.5209 26.3826 36.3436 25.9544 36.0278 25.6386C35.7121 25.3229 35.2839 25.1455 34.8374 25.1455H16.3186Z" fill="white"/>
<path d="M33.2648 25.1455C33.1159 25.1455 32.9732 25.0864 32.868 24.9811C32.7627 24.8759 32.7036 24.7331 32.7036 24.5843V18.9995C32.7156 18.0277 32.5346 17.0632 32.171 16.1619C31.8074 15.2606 31.2686 14.4405 30.5856 13.749C29.9027 13.0576 29.0892 12.5086 28.1925 12.1339C27.2958 11.7592 26.3336 11.5663 25.3617 11.5663C24.3899 11.5663 23.4277 11.7592 22.531 12.1339C21.6342 12.5086 20.8208 13.0576 20.1379 13.749C19.4549 14.4405 18.916 15.2606 18.5525 16.1619C18.1889 17.0632 18.0079 18.0277 18.0199 18.9995V24.5843C18.0199 24.7331 17.9608 24.8759 17.8555 24.9811C17.7503 25.0864 17.6075 25.1455 17.4587 25.1455C17.3099 25.1455 17.1671 25.0864 17.0619 24.9811C16.9567 24.8759 16.8975 24.7331 16.8975 24.5843V18.9995C16.8846 17.8798 17.094 16.7686 17.5136 15.7304C17.9332 14.6921 18.5546 13.7475 19.3419 12.9511C20.1291 12.1547 21.0666 11.5225 22.0999 11.091C23.1332 10.6594 24.2419 10.4373 25.3617 10.4373C26.4815 10.4373 27.5902 10.6594 28.6236 11.091C29.6569 11.5225 30.5943 12.1547 31.3816 12.9511C32.1688 13.7475 32.7903 14.6921 33.2098 15.7304C33.6294 16.7686 33.8388 17.8798 33.8259 18.9995V24.5843C33.8259 24.7331 33.7668 24.8759 33.6616 24.9811C33.5563 25.0864 33.4136 25.1455 33.2648 25.1455Z" fill="white"/>
<path d="M26.5499 38.122H24.6038C24.4427 38.1219 24.2837 38.0858 24.1383 38.0166C23.9929 37.9473 23.8647 37.8465 23.7631 37.7215C23.6616 37.5965 23.5891 37.4504 23.5511 37.2939C23.513 37.1374 23.5103 36.9744 23.5432 36.8167L23.8148 35.5316C23.3938 35.2116 23.0699 34.781 22.8793 34.2877C22.6886 33.7945 22.6387 33.258 22.7351 32.7381C22.8169 32.2761 23.0102 31.841 23.2981 31.4705C23.586 31.1001 23.9598 30.8053 24.3873 30.6119C24.8147 30.4184 25.2829 30.3321 25.7512 30.3603C26.2195 30.3886 26.6739 30.5305 27.075 30.7739C27.4761 31.0173 27.8119 31.3548 28.0532 31.7572C28.2944 32.1596 28.434 32.6147 28.4598 33.0832C28.4856 33.5517 28.3968 34.0194 28.2011 34.4458C28.0054 34.8722 27.7087 35.2445 27.3367 35.5305L27.6083 36.8167C27.6412 36.9744 27.6385 37.1374 27.6004 37.2939C27.5624 37.4504 27.4899 37.5965 27.3883 37.7215C27.2868 37.8465 27.1586 37.9473 27.0132 38.0166C26.8678 38.0858 26.7088 38.1219 26.5477 38.122H26.5499ZM25.5769 31.49C25.464 31.49 25.3513 31.4998 25.2402 31.5192C24.8841 31.5853 24.5571 31.7597 24.3039 32.0186C24.0507 32.2775 23.8836 32.6083 23.8253 32.9657C23.7671 33.3231 23.8207 33.6898 23.9787 34.0157C24.1367 34.3415 24.3915 34.6107 24.7082 34.7863C24.812 34.8449 24.8946 34.9349 24.9438 35.0435C24.993 35.1521 25.0064 35.2735 24.982 35.3902L24.6419 37.0423L26.5499 36.9951L26.1627 35.3857C26.1384 35.2689 26.152 35.1474 26.2014 35.0388C26.2509 34.9302 26.3336 34.8402 26.4377 34.7819C26.6873 34.6436 26.8995 34.4465 27.0558 34.2077C27.2121 33.969 27.3079 33.6957 27.3347 33.4116C27.3616 33.1274 27.3188 32.841 27.21 32.5772C27.1012 32.3134 26.9297 32.08 26.7104 31.8974C26.393 31.6311 25.9911 31.4867 25.5769 31.49Z" fill="#C29117"/>
</svg>
